<svg xmlns="http://www.w3.org/2000/svg" xmlns:xlink="http://www.w3.org/1999/xlink" version="1.1" width="21.324219pt" height="21.299805pt" viewBox="0 0 21.324219 21.299805">
<path transform="matrix(1,0,0,-1,0,21.299805)" d="M11.325 3.299803C12.041666 3.299803 12.741667 3.395636 13.425 3.587303 14.108334 3.778971 14.758333 4.058136 15.375 4.424803L11.5 8.299804H11.325C10.208333 8.299804 9.125 8.120637 8.075 7.762303 7.025 7.40397 6.058333 6.883137 5.175 6.199803 6.008334 5.283136 6.925 4.570637 7.925 4.062304 8.925 3.55397 10.058333 3.299803 11.325 3.299803ZM19.800002-.000196 16.85 2.949802C16.033333 2.41647 15.158334 2.008135 14.225 1.724802 13.291667 1.441469 12.325 1.299803 11.325 1.299803 9.941667 1.299803 8.641666 1.562304 7.425 2.087303 6.208333 2.612303 5.15 3.324804 4.25 4.224804 3.35 5.124804 2.6375 6.183136 2.1125 7.399803 1.5875 8.61647 1.325 9.916471 1.325 11.299804 1.325 12.283137 1.4625 13.24147 1.7375 14.174805 2.0125 15.108137 2.416667 15.99147 2.95 16.824805L0 19.799805 1.425 21.224804 21.225 1.424803 19.800002-.000196ZM19.675002 5.799804 13.975 11.499804C14.258334 11.81647 14.470834 12.170637 14.6125 12.562304 14.754167 12.95397 14.825 13.36647 14.825 13.799805 14.825 14.766471 14.483334 15.591471 13.8 16.274804 13.116667 16.958138 12.291666 17.299805 11.325 17.299805 10.891666 17.299805 10.479167 17.228972 10.087501 17.087304 9.695834 16.945637 9.341667 16.733138 9.025001 16.449805L5.825 19.649806C6.641667 20.183138 7.516666 20.59147 8.45 20.874806 9.383333 21.158139 10.341666 21.299805 11.325 21.299805 12.708333 21.299805 14.008333 21.037304 15.225 20.512305 16.441668 19.987305 17.5 19.274806 18.4 18.374806 19.3 17.474804 20.0125 16.416472 20.5375 15.199804 21.0625 13.983137 21.325 12.683137 21.325 11.299804 21.325 10.31647 21.183333 9.358137 20.9 8.424804 20.616667 7.49147 20.208334 6.61647 19.675002 5.799804Z" fill="#ff2338"/>
</svg>
