<svg xmlns="http://www.w3.org/2000/svg" xmlns:xlink="http://www.w3.org/1999/xlink" version="1.1" width="18pt" height="20pt" viewBox="0 0 18 20">
<path transform="matrix(1,0,0,-1,0,20)" d="M5 8C4.716667 8 4.479167 8.095833 4.2875 8.287499 4.095833 8.479166 4 8.716666 4 9 4 9.283334 4.095833 9.520833 4.2875 9.7125 4.479167 9.904166 4.716667 10 5 10 5.283333 10 5.520833 9.904166 5.7125 9.7125 5.904167 9.520833 6 9.283334 6 9 6 8.716666 5.904167 8.479166 5.7125 8.287499 5.520833 8.095833 5.283333 8 5 8ZM9 8C8.716666 8 8.479167 8.095833 8.2875 8.287499 8.095834 8.479166 8 8.716666 8 9 8 9.283334 8.095834 9.520833 8.2875 9.7125 8.479167 9.904166 8.716666 10 9 10 9.283334 10 9.520834 9.904166 9.712501 9.7125 9.904167 9.520833 10 9.283334 10 9 10 8.716666 9.904167 8.479166 9.712501 8.287499 9.520834 8.095833 9.283334 8 9 8ZM13 8C12.716666 8 12.479167 8.095833 12.2875 8.287499 12.095834 8.479166 12 8.716666 12 9 12 9.283334 12.095834 9.520833 12.2875 9.7125 12.479167 9.904166 12.716666 10 13 10 13.283334 10 13.520834 9.904166 13.712501 9.7125 13.904167 9.520833 14 9.283334 14 9 14 8.716666 13.904167 8.479166 13.712501 8.287499 13.520834 8.095833 13.283334 8 13 8ZM2 0C1.45 0 .979167 .195833 .5875 .5875 .195833 .979166 0 1.450001 0 2V16C0 16.55 .195833 17.020834 .5875 17.4125 .979167 17.804167 1.45 18 2 18H3V20H5V18H13V20H15V18H16C16.55 18 17.020834 17.804167 17.4125 17.4125 17.804167 17.020834 18 16.55 18 16V2C18 1.450001 17.804167 .979166 17.4125 .5875 17.020834 .195833 16.55 0 16 0H2ZM2 2H16V12H2V2ZM2 14H16V16H2V14Z" fill="#ffffff"/>
</svg>
