<svg xmlns="http://www.w3.org/2000/svg" xmlns:xlink="http://www.w3.org/1999/xlink" version="1.1" width="14.688965pt" height="14.664062pt" viewBox="0 0 14.688965 14.664062">
<path transform="matrix(1,0,0,-1,.200012,14.86328)" d="M11.412244 14.396246 11.554027 14.537308 11.553307 14.538025 11.412244 14.396246ZM10.114466 14.396246 9.973403 14.538025 9.973146 14.537769 10.114466 14.396246ZM.865577 5.16069 .724257 5.302214 .683682 5.261697 .670738 5.205835 .865577 5.16069ZM.021132 1.516246-.173721 1.561396-.174252 1.558969 .021132 1.516246ZM.910021 .405134 .930114 .604122 .920696 .605073 .91123 .60513 .910021 .405134ZM1.101132 .405134 1.121226 .206146 1.133645 .2074 1.145812 .210189 1.101132 .405134ZM4.785577 1.249579 4.830256 1.054634 4.886273 1.067472 4.92693 1.10809 4.785577 1.249579ZM14.021132 10.476246 14.162486 10.334756 14.16291 10.335183 14.021132 10.476246ZM4.341132 2.049579 4.382195 1.85384 4.440218 1.866012 4.482234 1.90784 4.341132 2.049579ZM.887799 1.325135 .692985 1.370387 .622057 1.065034 .928861 1.129395 .887799 1.325135ZM1.674466 4.711802 1.533317 4.853497 1.492642 4.812978 1.479652 4.757054 1.674466 4.711802ZM8.594465 11.605135 8.735887 11.746556 8.594738 11.887705 8.453318 11.746829 8.594465 11.605135ZM11.261132 8.938468 11.402235 8.796728 11.544294 8.938148 11.402554 9.079889 11.261132 8.938468ZM11.856688 9.582912 11.715266 9.441491 11.858352 9.298407 11.999753 9.443155 11.856688 9.582912ZM9.190022 12.249579 9.049008 12.391408 8.906771 12.249988 9.0486 12.108158 9.190022 12.249579ZM10.736688 13.787357 10.879292 13.927585 10.738288 14.070979 10.595675 13.929186 10.736688 13.787357ZM13.358911 11.12069 13.501976 10.980932 13.638953 11.121151 13.501515 11.260919 13.358911 11.12069ZM14.162913 11.915085 11.554025 14.537307 11.270462 14.255185 13.879351 11.632963 14.162913 11.915085ZM11.553307 14.538025C11.343431 14.74684 11.059415 14.864062 10.763355 14.864062V14.464063C10.953679 14.464063 11.136261 14.388705 11.27118 14.254467L11.553307 14.538025ZM10.763355 14.864062C10.467295 14.864062 10.183278 14.74684 9.973403 14.538025L10.255528 14.254467C10.390449 14.388705 10.57303 14.464063 10.763355 14.464063V14.864062ZM9.973146 14.537769 .724257 5.302214 1.006896 5.019167 10.255785 14.254723 9.973146 14.537769ZM.670738 5.205835-.173706 1.561392 .21597 1.471101 1.060415 5.115545 .670738 5.205835ZM-.174252 1.558969C-.209746 1.396642-.208529 1.228435-.170691 1.066638L.2188 1.157726C.194529 1.261508 .193749 1.369402 .216516 1.473524L-.174252 1.558969ZM-.170691 1.066638C-.132852 .904842-.059348 .753542 .044453 .623791L.356801 .873669C.290219 .956896 .243071 1.053945 .2188 1.157726L-.170691 1.066638ZM.044453 .623791C.148254 .49404 .279729 .389117 .429273 .316686L.603637 .676682C.507713 .723143 .423381 .790443 .356801 .873669L.044453 .623791ZM.429273 .316686C.578816 .244254 .742652 .206142 .908812 .205138L.91123 .60513C.804651 .605775 .699561 .63022 .603637 .676682L.429273 .316686ZM.889928 .206146C.966831 .19838 1.044322 .19838 1.121226 .206146L1.081039 .604122C1.030858 .599055 .980295 .599055 .930114 .604122L.889928 .206146ZM1.145812 .210189 4.830256 1.054634 4.740897 1.444525 1.056452 .60008 1.145812 .210189ZM4.92693 1.10809 14.162485 10.334757 13.879779 10.617735 4.644224 1.391068 4.92693 1.10809ZM14.16291 10.335183C14.371726 10.545058 14.488949 10.829075 14.488949 11.125135H14.088949C14.088949 10.934811 14.013592 10.752229 13.879353 10.617309L14.16291 10.335183ZM14.488949 11.125135C14.488949 11.421195 14.371726 11.705212 14.16291 11.915087L13.879353 11.632961C14.013592 11.498041 14.088949 11.315458 14.088949 11.125135H14.488949ZM4.30007 2.245318 .846736 1.520874 .928861 1.129395 4.382195 1.85384 4.30007 2.245318ZM1.082612 1.279883 1.869279 4.666551 1.479652 4.757054 .692985 1.370387 1.082612 1.279883ZM1.815614 4.570108 8.735614 11.463441 8.453318 11.746829 1.533317 4.853497 1.815614 4.570108ZM8.453044 11.463714 11.119711 8.797047 11.402554 9.079889 8.735887 11.746556 8.453044 11.463714ZM11.120029 9.080208 4.20003 2.191319 4.482234 1.90784 11.402235 8.796728 11.120029 9.080208ZM11.998109 9.724334 9.331443 12.391001 9.0486 12.108158 11.715266 9.441491 11.998109 9.724334ZM9.331035 12.107751 10.877701 13.645529 10.595675 13.929186 9.049008 12.391408 9.331035 12.107751ZM10.594083 13.647129 13.216306 10.980462 13.501515 11.260919 10.879292 13.927585 10.594083 13.647129ZM13.215845 11.260448 11.713622 9.72267 11.999753 9.443155 13.501976 10.980932 13.215845 11.260448Z" fill="#222222"/>
<path transform="matrix(1,0,0,-1,.200012,14.86328)" d="M14.021132 11.774024 11.412244 14.396246C11.239846 14.567773 11.006547 14.664062 10.763355 14.664062 10.520163 14.664062 10.286863 14.567773 10.114466 14.396246L.865577 5.16069 .021132 1.516246C-.007999 1.383022-.007 1.244971 .024055 1.112183 .055109 .979393 .115436 .855219 .200627 .74873 .285818 .642241 .393721 .556129 .516455 .496684 .639188 .437238 .773651 .405959 .910021 .405134 .973563 .398718 1.03759 .398718 1.101132 .405134L4.785577 1.249579 14.021132 10.476246C14.192658 10.648643 14.288949 10.881943 14.288949 11.125135 14.288949 11.368327 14.192658 11.601626 14.021132 11.774024ZM4.341132 2.049579 .887799 1.325135 1.674466 4.711802 8.594465 11.605135 11.261132 8.938468 4.341132 2.049579ZM11.856688 9.582912 9.190022 12.249579 10.736688 13.787357 13.358911 11.12069 11.856688 9.582912Z" fill="#222222"/>
</svg>
