<svg xmlns="http://www.w3.org/2000/svg" xmlns:xlink="http://www.w3.org/1999/xlink" version="1.1" width="18pt" height="18pt" viewBox="0 0 18 18">
<path transform="matrix(1,0,0,-1,0,18)" d="M4 0V2H8V5.099999C7.183333 5.283333 6.454166 5.629167 5.8125 6.1375 5.170834 6.645833 4.7 7.283334 4.4 8.05 3.15 8.2 2.104167 8.745833 1.2625 9.6875 .420833 10.629167 0 11.733334 0 13V14C0 14.55 .195833 15.020833 .5875 15.4125 .979167 15.804167 1.45 16 2 16H4V18H14V16H16C16.55 16 17.020834 15.804167 17.4125 15.4125 17.804167 15.020833 18 14.55 18 14V13C18 11.733334 17.579169 10.629167 16.737502 9.6875 15.895834 8.745833 14.85 8.2 13.6 8.05 13.3 7.283334 12.829166 6.645833 12.1875 6.1375 11.545834 5.629167 10.816667 5.283333 10 5.099999V2H14V0H4ZM4 10.2V14H2V13C2 12.366667 2.183333 11.795834 2.55 11.2875 2.916667 10.779167 3.4 10.416666 4 10.2ZM9 7C9.833333 7 10.541667 7.291667 11.125 7.875 11.708333 8.458333 12 9.166667 12 10V16H6V10C6 9.166667 6.291667 8.458333 6.875 7.875 7.458333 7.291667 8.166667 7 9 7ZM14 10.2C14.6 10.416666 15.083333 10.779167 15.45 11.2875 15.816667 11.795834 16 12.366667 16 13V14H14V10.2Z" fill="#ffffff"/>
</svg>
