<svg xmlns="http://www.w3.org/2000/svg" xmlns:xlink="http://www.w3.org/1999/xlink" version="1.1" width="18pt" height="20pt" viewBox="0 0 18 20">
<path transform="matrix(1,0,0,-1,0,20)" d="M11.5 4C10.8 4 10.208334 4.241666 9.725 4.724999 9.241667 5.208333 9 5.8 9 6.5 9 7.2 9.241667 7.791666 9.725 8.275 10.208334 8.758333 10.8 9 11.5 9 12.2 9 12.791667 8.758333 13.275001 8.275 13.758334 7.791666 14 7.2 14 6.5 14 5.8 13.758334 5.208333 13.275001 4.724999 12.791667 4.241666 12.2 4 11.5 4ZM2 0C1.45 0 .979167 .195833 .5875 .5875 .195833 .979166 0 1.450001 0 2V16C0 16.55 .195833 17.020834 .5875 17.4125 .979167 17.804167 1.45 18 2 18H3V20H5V18H13V20H15V18H16C16.55 18 17.020834 17.804167 17.4125 17.4125 17.804167 17.020834 18 16.55 18 16V2C18 1.450001 17.804167 .979166 17.4125 .5875 17.020834 .195833 16.55 0 16 0H2ZM2 2H16V12H2V2Z" fill="#00ffcf"/>
</svg>
