<svg xmlns="http://www.w3.org/2000/svg" xmlns:xlink="http://www.w3.org/1999/xlink" version="1.1" width="16pt" height="20pt" viewBox="0 0 16 20">
<path transform="matrix(1,0,0,-1,0,20)" d="M4 2H12V5C12 6.1 11.608334 7.041666 10.825 7.825 10.041666 8.608334 9.1 9 8 9 6.9 9 5.958333 8.608334 5.175 7.825 4.391667 7.041666 4 6.1 4 5V2ZM0 0V2H2V5C2 6.016666 2.2375 6.970834 2.7125 7.8625 3.1875 8.754167 3.85 9.466666 4.7 10 3.85 10.533334 3.1875 11.245833 2.7125 12.1375 2.2375 13.029167 2 13.983334 2 15V18H0V20H16V18H14V15C14 13.983334 13.762501 13.029167 13.2875 12.1375 12.8125 11.245833 12.150001 10.533334 11.3 10 12.150001 9.466666 12.8125 8.754167 13.2875 7.8625 13.762501 6.970834 14 6.016666 14 5V2H16V0H0Z" fill="#00ffcf"/>
</svg>
