<svg xmlns="http://www.w3.org/2000/svg" xmlns:xlink="http://www.w3.org/1999/xlink" version="1.1" width="18.599549pt" height="17.599366pt" viewBox="0 0 18.599549 17.599366">
<path transform="matrix(1,0,0,-1,.799988,18.399415)" d="M3.399905 15.199756H13.59962V16.799756H3.399905V15.199756ZM13.59962 15.199756C15.081891 15.199756 16.199524 14.08028 16.199524 12.799845H17.799525C17.799525 15.053934 15.872781 16.799756 13.59962 16.799756V15.199756ZM16.199524 12.799845V4.800068H17.799525V12.799845H16.199524ZM16.199524 4.800068C16.199524 3.519632 15.081891 2.400157 13.59962 2.400157V.800157C15.872781 .800157 17.799525 2.545979 17.799525 4.800068H16.199524ZM13.59962 2.400157H3.399905V.800157H13.59962V2.400157ZM3.399905 2.400157C1.917634 2.400157 .8 3.519632 .8 4.800068H-.8C-.8 2.545979 1.126744 .800157 3.399905 .800157V2.400157ZM.8 4.800068V12.799845H-.8V4.800068H.8ZM.8 12.799845C.8 14.08028 1.917634 15.199756 3.399905 15.199756V16.799756C1.126744 16.799756-.8 15.053934-.8 12.799845H.8Z" fill="#7160c7"/>
<path transform="matrix(1,0,0,-1,5.899597,5.6000978)" d="M.8 4.800049C.8 5.241877 .441828 5.600049 0 5.600049-.441828 5.600049-.8 5.241877-.8 4.800049H.8ZM-.8 1.600138C-.8 1.15831-.441828 .800138 0 .800138 .441828 .800138 .8 1.15831 .8 1.600138H-.8ZM-.8 4.800049V1.600138H.8V4.800049H-.8Z" fill="#7160c7"/>
<path transform="matrix(1,0,0,-1,12.698425,5.6000978)" d="M.8 4.800049C.8 5.241877 .441828 5.600049 0 5.600049-.441828 5.600049-.8 5.241877-.8 4.800049H.8ZM-.8 1.600138C-.8 1.15831-.441828 .800138 0 .800138 .441828 .800138 .8 1.15831 .8 1.600138H-.8ZM-.8 4.800049V1.600138H.8V4.800049H-.8Z" fill="#7160c7"/>
<path transform="matrix(1,0,0,-1,.799988,8.800537)" d="M0 2.400098C-.441828 2.400098-.8 2.041925-.8 1.600098-.8 1.15827-.441828 .800098 0 .800098V2.400098ZM16.999526 .800098C17.441353 .800098 17.799525 1.15827 17.799525 1.600098 17.799525 2.041925 17.441353 2.400098 16.999526 2.400098V.800098ZM0 .800098H16.999526V2.400098H0V.800098Z" fill="#7160c7"/>
</svg>
