<svg xmlns="http://www.w3.org/2000/svg" xmlns:xlink="http://www.w3.org/1999/xlink" version="1.1" width="17pt" height="12.5pt" viewBox="0 0 17 12.5">
<path transform="matrix(1,0,0,-1,4,1.5)" d="M0 .75C0 1.164214 .335786 1.5 .75 1.5H12.25C12.664214 1.5 13 1.164214 13 .75 13 .335786 12.664213 0 12.25 0H.75C.335786 0 0 .335786 0 .75Z" fill="#7160c7"/>
<path transform="matrix(1,0,0,-1,0,1.5)" d="M0 .75C0 1.164214 .335786 1.5 .75 1.5H2.25C2.664214 1.5 3 1.164214 3 .75 3 .335786 2.664214 0 2.25 0H.75C.335786 0 0 .335786 0 .75Z" fill="#7160c7"/>
<path transform="matrix(1,0,0,-1,0,7)" d="M0 .75C0 1.164214 .335786 1.5 .75 1.5H2.25C2.664214 1.5 3 1.164214 3 .75 3 .335786 2.664214 0 2.25 0H.75C.335786 0 0 .335786 0 .75Z" fill="#7160c7"/>
<path transform="matrix(1,0,0,-1,4,7)" d="M0 .75C0 1.164214 .335786 1.5 .75 1.5H8.25C8.664214 1.5 9 1.164214 9 .75 9 .335786 8.664213 0 8.25 0H.75C.335786 0 0 .335786 0 .75Z" fill="#7160c7"/>
<path transform="matrix(1,0,0,-1,0,12.5)" d="M0 .75C0 1.164214 .335786 1.5 .75 1.5H2.25C2.664214 1.5 3 1.164214 3 .75 3 .335786 2.664214 0 2.25 0H.75C.335786 0 0 .335786 0 .75Z" fill="#7160c7"/>
<path transform="matrix(1,0,0,-1,4,12.5)" d="M0 .75C0 1.164214 .335786 1.5 .75 1.5H9.25C9.664214 1.5 10 1.164214 10 .75 10 .335786 9.664213 0 9.25 0H.75C.335786 0 0 .335786 0 .75Z" fill="#7160c7"/>
</svg>
