<svg xmlns="http://www.w3.org/2000/svg" xmlns:xlink="http://www.w3.org/1999/xlink" version="1.1" width="15.000244pt" height="15.000244pt" viewBox="0 0 15.000244 15.000244">
<defs>
<mask id="mask_0">
<g>
<clipPath id="clip_1">
<path transform="matrix(1,0,0,-1,0,15.000244)" d="M0 0H15.000244V15.000244H0Z"/>
</clipPath>
<g clip-path="url(#clip_1)">
<path transform="matrix(1,0,0,-1,0,6.818115)" d="M6.136364 6.818115H.681818C.30526 6.818115 0 6.512855 0 6.136297V.681752C0 .305194 .30526-.000067 .681818-.000067H6.136364C6.512921-.000067 6.818182 .305194 6.818182 .681752V6.136297C6.818182 6.512855 6.512921 6.818115 6.136364 6.818115Z" fill="#ffffff"/>
</g>
</g>
"/>
</mask>
<clipPath id="clip_2">
<path transform="matrix(1,0,0,-1,0,15.000244)" d="M0 0H15.000244V15.000244H0Z"/>
</clipPath>
<mask id="mask_3">
<g>
<clipPath id="clip_4">
<path transform="matrix(1,0,0,-1,0,15.000244)" d="M0 0H15.000244V15.000244H0Z"/>
</clipPath>
<g clip-path="url(#clip_4)">
<path transform="matrix(1,0,0,-1,8.182007,6.818115)" d="M6.136364 6.818115H.681818C.30526 6.818115 0 6.512855 0 6.136297V.681752C0 .305194 .30526-.000067 .681818-.000067H6.136364C6.512921-.000067 6.818182 .305194 6.818182 .681752V6.136297C6.818182 6.512855 6.512921 6.818115 6.136364 6.818115Z" fill="#ffffff"/>
</g>
</g>
"/>
</mask>
<clipPath id="clip_5">
<path transform="matrix(1,0,0,-1,0,15.000244)" d="M0 0H15.000244V15.000244H0Z"/>
</clipPath>
<mask id="mask_6">
<g>
<clipPath id="clip_7">
<path transform="matrix(1,0,0,-1,0,15.000244)" d="M0 0H15.000244V15.000244H0Z"/>
</clipPath>
<g clip-path="url(#clip_7)">
<path transform="matrix(1,0,0,-1,0,15)" d="M6.136364 6.818115H.681818C.30526 6.818115 0 6.512855 0 6.136297V.681752C0 .305194 .30526-.000067 .681818-.000067H6.136364C6.512921-.000067 6.818182 .305194 6.818182 .681752V6.136297C6.818182 6.512855 6.512921 6.818115 6.136364 6.818115Z" fill="#ffffff"/>
</g>
</g>
"/>
</mask>
<clipPath id="clip_8">
<path transform="matrix(1,0,0,-1,0,15.000244)" d="M0 0H15.000244V15.000244H0Z"/>
</clipPath>
<mask id="mask_9">
<g>
<clipPath id="clip_10">
<path transform="matrix(1,0,0,-1,0,15.000244)" d="M0 0H15.000244V15.000244H0Z"/>
</clipPath>
<g clip-path="url(#clip_10)">
<path transform="matrix(1,0,0,-1,8.182007,15)" d="M6.136364 6.818115H.681818C.30526 6.818115 0 6.512855 0 6.136297V.681752C0 .305194 .30526-.000067 .681818-.000067H6.136364C6.512921-.000067 6.818182 .305194 6.818182 .681752V6.136297C6.818182 6.512855 6.512921 6.818115 6.136364 6.818115Z" fill="#ffffff"/>
</g>
</g>
"/>
</mask>
<clipPath id="clip_11">
<path transform="matrix(1,0,0,-1,0,15.000244)" d="M0 0H15.000244V15.000244H0Z"/>
</clipPath>
</defs>
<g>
<g mask="url(#mask_0)">
<g>
<g clip-path="url(#clip_2)">
<path transform="matrix(1,0,0,-1,0,9.818115)" d="M.681818 8.318115H6.136364V11.318115H.681818V8.318115ZM6.136364 8.318115C5.684494 8.318115 5.318182 8.684427 5.318182 9.136297H8.318182C8.318182 10.341282 7.341349 11.318115 6.136364 11.318115V8.318115ZM5.318182 9.136297V3.681752H8.318182V9.136297H5.318182ZM5.318182 3.681752C5.318182 4.133621 5.684494 4.499933 6.136364 4.499933V1.499933C7.341349 1.499933 8.318182 2.476767 8.318182 3.681752H5.318182ZM6.136364 4.499933H.681818V1.499933H6.136364V4.499933ZM.681818 4.499933C1.133687 4.499933 1.5 4.133621 1.5 3.681752H-1.5C-1.5 2.476767-.523167 1.499933 .681818 1.499933V4.499933ZM1.5 3.681752V9.136297H-1.5V3.681752H1.5ZM1.5 9.136297C1.5 8.684427 1.133687 8.318115 .681818 8.318115V11.318115C-.523167 11.318115-1.5 10.341282-1.5 9.136297H1.5Z" fill="#7160c7"/>
</g>
</g>
</g>
<g mask="url(#mask_3)">
<g>
<g clip-path="url(#clip_5)">
<path transform="matrix(1,0,0,-1,8.181763,9.818115)" d="M.681818 8.318115H6.136364V11.318115H.681818V8.318115ZM6.136364 8.318115C5.684494 8.318115 5.318182 8.684427 5.318182 9.136297H8.318182C8.318182 10.341282 7.341349 11.318115 6.136364 11.318115V8.318115ZM5.318182 9.136297V3.681752H8.318182V9.136297H5.318182ZM5.318182 3.681752C5.318182 4.133621 5.684494 4.499933 6.136364 4.499933V1.499933C7.341349 1.499933 8.318182 2.476767 8.318182 3.681752H5.318182ZM6.136364 4.499933H.681818V1.499933H6.136364V4.499933ZM.681818 4.499933C1.133687 4.499933 1.5 4.133621 1.5 3.681752H-1.5C-1.5 2.476767-.523167 1.499933 .681818 1.499933V4.499933ZM1.5 3.681752V9.136297H-1.5V3.681752H1.5ZM1.5 9.136297C1.5 8.684427 1.133687 8.318115 .681818 8.318115V11.318115C-.523167 11.318115-1.5 10.341282-1.5 9.136297H1.5Z" fill="#7160c7"/>
</g>
</g>
</g>
<g mask="url(#mask_6)">
<g>
<g clip-path="url(#clip_8)">
<path transform="matrix(1,0,0,-1,0,18)" d="M.681818 8.318115H6.136364V11.318115H.681818V8.318115ZM6.136364 8.318115C5.684494 8.318115 5.318182 8.684427 5.318182 9.136297H8.318182C8.318182 10.341282 7.341349 11.318115 6.136364 11.318115V8.318115ZM5.318182 9.136297V3.681752H8.318182V9.136297H5.318182ZM5.318182 3.681752C5.318182 4.133621 5.684494 4.499933 6.136364 4.499933V1.499933C7.341349 1.499933 8.318182 2.476767 8.318182 3.681752H5.318182ZM6.136364 4.499933H.681818V1.499933H6.136364V4.499933ZM.681818 4.499933C1.133687 4.499933 1.5 4.133621 1.5 3.681752H-1.5C-1.5 2.476767-.523167 1.499933 .681818 1.499933V4.499933ZM1.5 3.681752V9.136297H-1.5V3.681752H1.5ZM1.5 9.136297C1.5 8.684427 1.133687 8.318115 .681818 8.318115V11.318115C-.523167 11.318115-1.5 10.341282-1.5 9.136297H1.5Z" fill="#7160c7"/>
</g>
</g>
</g>
<g mask="url(#mask_9)">
<g>
<g clip-path="url(#clip_11)">
<path transform="matrix(1,0,0,-1,8.181763,15)" d="M6.136364 6.818115H.681818C.30526 6.818115 0 6.512855 0 6.136297V.681752C0 .305194 .30526-.000067 .681818-.000067H6.136364C6.512921-.000067 6.818182 .305194 6.818182 .681752V6.136297C6.818182 6.512855 6.512921 6.818115 6.136364 6.818115Z" fill="#7160c7"/>
<path transform="matrix(1,0,0,-1,8.181763,18)" d="M.681818 8.318115H6.136364V11.318115H.681818V8.318115ZM6.136364 8.318115C5.684495 8.318115 5.318182 8.684427 5.318182 9.136297H8.318182C8.318182 10.341283 7.341348 11.318115 6.136364 11.318115V8.318115ZM5.318182 9.136297V3.681752H8.318182V9.136297H5.318182ZM5.318182 3.681752C5.318182 4.133621 5.684494 4.499933 6.136364 4.499933V1.499933C7.341349 1.499933 8.318182 2.476767 8.318182 3.681752H5.318182ZM6.136364 4.499933H.681818V1.499933H6.136364V4.499933ZM.681818 4.499933C1.133688 4.499933 1.5 4.13362 1.5 3.681752H-1.5C-1.5 2.476768-.523168 1.499933 .681818 1.499933V4.499933ZM1.5 3.681752V9.136297H-1.5V3.681752H1.5ZM1.5 9.136297C1.5 8.684427 1.133687 8.318115 .681818 8.318115V11.318115C-.523167 11.318115-1.5 10.341282-1.5 9.136297H1.5Z" fill="#7160c7"/>
</g>
</g>
</g>
</g>
</svg>
