<svg xmlns="http://www.w3.org/2000/svg" xmlns:xlink="http://www.w3.org/1999/xlink" version="1.1" width="21.297547pt" height="20.152344pt" viewBox="0 0 21.297547 20.152344">
<defs>
<clipPath id="clip_0">
<path transform="matrix(1,0,0,-1,0,20.152344)" d="M19.527092 .300678 17.102093 2.700678C16.768759 2.467344 16.397759 2.292345 15.989091 2.175678 15.581091 2.059011 15.160425 2.000677 14.727092 2.000677 13.477092 2.000677 12.414757 2.438345 11.540091 3.313679 10.664757 4.188345 10.227091 5.250676 10.227091 6.500676 10.227091 7.750676 10.664757 8.813343 11.540091 9.688677 12.414757 10.563343 13.477092 11.000677 14.727092 11.000677 15.977092 11.000677 17.039759 10.563343 17.915093 9.688677 18.789759 8.813343 19.227093 7.750676 19.227093 6.500676 19.227093 6.067343 19.168759 5.646677 19.052092 5.238677 18.935425 4.83001 18.760426 4.450678 18.527092 4.100677L20.927092 1.700678C21.127093 1.500677 21.231425 1.267344 21.240092 1.000677 21.24809 .734011 21.152092 .500679 20.952092 .300678 20.75209 .100677 20.514426 .000677 20.239092 .000677 19.964426 .000677 19.727093 .100677 19.527092 .300678ZM14.727092 4.000677C15.427092 4.000677 16.018759 4.242343 16.502093 4.725677 16.985426 5.20901 17.227093 5.800676 17.227093 6.500676 17.227093 7.200676 16.985426 7.792343 16.502093 8.275677 16.018759 8.75901 15.427092 9.000677 14.727092 9.000677 14.027092 9.000677 13.435425 8.75901 12.952091 8.275677 12.468758 7.792343 12.227091 7.200676 12.227091 6.500676 12.227091 5.800676 12.468758 5.20901 12.952091 4.725677 13.435425 4.242343 14.027092 4.000677 14.727092 4.000677ZM.402091 5.025678C.185425 5.175677 .056425 5.379677 .015091 5.637677-.026909 5.896344 .018758 6.142343 .152091 6.375676L3.927091 12.425677C4.110425 12.709011 4.364758 12.86301 4.690091 12.887677 5.014758 12.913011 5.293758 12.800677 5.527091 12.550677L7.652091 10.075677 10.827091 15.250677C11.010425 15.567344 11.289757 15.725677 11.665091 15.725677 12.039757 15.725677 12.327091 15.575677 12.527091 15.275677L14.377091 12.500677C13.993758 12.484011 13.631091 12.438343 13.289091 12.363677 12.947758 12.288343 12.610424 12.184011 12.277091 12.050677L11.727091 12.875677 8.652091 7.875677C8.468758 7.592343 8.210424 7.434011 7.877091 7.400677 7.543758 7.367343 7.260424 7.484011 7.027091 7.750677L4.902091 10.225677 1.852091 5.300677C1.702091 5.050677 1.481425 4.896677 1.190091 4.838677 .898091 4.780011 .635425 4.842344 .402091 5.025678ZM16.952092 12.000677C16.635424 12.13401 16.306092 12.242344 15.964091 12.325677 15.622758 12.40901 15.268758 12.459009 14.902091 12.475677L19.452092 19.675677C19.60209 19.90901 19.81876 20.05901 20.102093 20.125678 20.385426 20.192345 20.643759 20.13401 20.877093 19.950678 21.09376 19.800677 21.227093 19.596678 21.277092 19.338677 21.327092 19.08001 21.285426 18.834012 21.152092 18.600678L16.952092 12.000677Z" fill-rule="evenodd"/>
</clipPath>
</defs>
<path transform="matrix(1,0,0,-1,0,20.191407)" d="M19.527092 .339741 17.102093 2.73974C16.768759 2.506407 16.397759 2.331408 15.989091 2.214741 15.581091 2.098074 15.160425 2.03974 14.727092 2.03974 13.477092 2.03974 12.414757 2.477407 11.540091 3.352741 10.664757 4.227407 10.227091 5.289739 10.227091 6.539739 10.227091 7.789739 10.664757 8.852406 11.540091 9.727739 12.414757 10.602406 13.477092 11.03974 14.727092 11.03974 15.977092 11.03974 17.039759 10.602406 17.915093 9.727739 18.789759 8.852406 19.227093 7.789739 19.227093 6.539739 19.227093 6.106405 19.168759 5.68574 19.052092 5.27774 18.935425 4.869073 18.760426 4.48974 18.527092 4.13974L20.927092 1.73974C21.127093 1.53974 21.231425 1.306406 21.240092 1.03974 21.24809 .773073 21.152092 .539742 20.952092 .339741 20.75209 .13974 20.514426 .03974 20.239092 .03974 19.964426 .03974 19.727093 .13974 19.527092 .339741ZM14.727092 4.03974C15.427092 4.03974 16.018759 4.281405 16.502093 4.764739 16.985426 5.248073 17.227093 5.839739 17.227093 6.539739 17.227093 7.239738 16.985426 7.831406 16.502093 8.314739 16.018759 8.798073 15.427092 9.03974 14.727092 9.03974 14.027092 9.03974 13.435425 8.798073 12.952091 8.314739 12.468758 7.831406 12.227091 7.239738 12.227091 6.539739 12.227091 5.839739 12.468758 5.248073 12.952091 4.764739 13.435425 4.281405 14.027092 4.03974 14.727092 4.03974ZM.402091 5.06474C.185425 5.21474 .056425 5.418739 .015091 5.67674-.026909 5.935407 .018758 6.181405 .152091 6.414739L3.927091 12.46474C4.110425 12.748074 4.364758 12.902073 4.690091 12.92674 5.014758 12.952073 5.293758 12.83974 5.527091 12.58974L7.652091 10.114739 10.827091 15.28974C11.010425 15.606406 11.289757 15.76474 11.665091 15.76474 12.039757 15.76474 12.327091 15.614739 12.527091 15.314739L14.377091 12.53974C13.993758 12.523073 13.631091 12.477406 13.289091 12.40274 12.947758 12.327406 12.610424 12.223073 12.277091 12.08974L11.727091 12.91474 8.652091 7.91474C8.468758 7.631406 8.210424 7.473073 7.877091 7.439739 7.543758 7.406405 7.260424 7.523073 7.027091 7.78974L4.902091 10.264739 1.852091 5.33974C1.702091 5.08974 1.481425 4.93574 1.190091 4.87774 .898091 4.819074 .635425 4.881407 .402091 5.06474ZM16.952092 12.03974C16.635424 12.173073 16.306092 12.281406 15.964091 12.364739 15.622758 12.448072 15.268758 12.498072 14.902091 12.514739L19.452092 19.714739C19.60209 19.948073 19.81876 20.098073 20.102093 20.16474 20.385426 20.231408 20.643759 20.173073 20.877093 19.98974 21.09376 19.839739 21.227093 19.63574 21.277092 19.377739 21.327092 19.119072 21.285426 18.873074 21.152092 18.63974L16.952092 12.03974Z" fill="#7160c7"/>
<g clip-path="url(#clip_0)">
<path transform="matrix(1,0,0,-1,0,20.191407)" d="M17.102093 2.73974 17.242779 2.881893 17.124142 2.999306 16.9874 2.903587 17.102093 2.73974ZM15.989091 2.214741 15.934188 2.407057 15.934105 2.407034 15.989091 2.214741ZM11.540091 3.352741 11.681566 3.494108 11.681458 3.494217 11.540091 3.352741ZM17.915093 9.727739 18.056569 9.869107 18.05646 9.869215 17.915093 9.727739ZM19.052092 5.27774 18.859799 5.332726 18.859776 5.332643 19.052092 5.27774ZM18.527092 4.13974 18.360682 4.25068 18.269734 4.114256 18.38567 3.998318 18.527092 4.13974ZM21.240092 1.03974 21.440003 1.045736 21.439986 1.046236 21.240092 1.03974ZM.015091 5.67674 .212573 5.708378 .212506 5.708795 .015091 5.67674ZM.152091 6.414739-.017714 6.520692-.021557 6.513967 .152091 6.414739ZM3.927091 12.46474 3.759155 12.573404 3.757413 12.570614 3.927091 12.46474ZM4.690091 12.92674 4.705212 12.727312 4.705649 12.727346 4.690091 12.92674ZM5.527091 12.58974 5.678965 12.720137 5.673302 12.726204 5.527091 12.58974ZM7.652091 10.114739 7.500348 9.984455 7.679081 9.776283 7.822564 10.01015 7.652091 10.114739ZM10.827091 15.28974 10.99762 15.185116 11.000176 15.189532 10.827091 15.28974ZM12.527091 15.314739 12.360681 15.203799 12.527091 15.314739ZM14.377091 12.53974 14.385778 12.339928 14.740391 12.355347 14.543502 12.65068 14.377091 12.53974ZM13.289091 12.40274 13.246431 12.598137 13.245988 12.59804 13.289091 12.40274ZM12.277091 12.08974 12.110681 11.9788 12.200697 11.843776 12.351369 11.904044 12.277091 12.08974ZM11.727091 12.91474 11.893501 13.02568 11.720301 13.28548 11.55673 13.019512 11.727091 12.91474ZM8.652091 7.91474 8.820049 7.806061 8.822452 7.809968 8.652091 7.91474ZM7.027091 7.78974 6.875341 7.65945 6.876575 7.658039 7.027091 7.78974ZM4.902091 10.264739 5.053834 10.395023 4.875883 10.602284 4.732057 10.37004 4.902091 10.264739ZM1.852091 5.33974 1.68204 5.445051 1.680593 5.442639 1.852091 5.33974ZM1.190091 4.87774 1.151041 5.073891 1.150696 5.073821 1.190091 4.87774ZM16.952092 12.03974 16.87448 11.855412 17.030146 11.789869 17.120823 11.932364 16.952092 12.03974ZM15.964091 12.364739 15.916656 12.170446 15.916743 12.170424 15.964091 12.364739ZM14.902091 12.514739 14.733021 12.621582 14.549122 12.330576 14.893009 12.314945 14.902091 12.514739ZM19.452092 19.714739 19.28385 19.822896 19.283022 19.821583 19.452092 19.714739ZM20.877093 19.98974 20.753302 19.832188 20.76325 19.825303 20.877093 19.98974ZM21.277092 19.377739 21.473458 19.415698 21.473439 19.41579 21.277092 19.377739ZM21.152092 18.63974 21.321017 18.532244 21.32574 18.540513 21.152092 18.63974ZM19.667778 .481894 17.242779 2.881893 16.961407 2.597588 19.386406 .197588 19.667778 .481894ZM16.9874 2.903587C16.673077 2.683561 16.322443 2.517897 15.934188 2.407057L16.043993 2.022425C16.473074 2.144918 16.86444 2.329254 17.216786 2.575893L16.9874 2.903587ZM15.934105 2.407034C15.544364 2.295588 15.142224 2.23974 14.727092 2.23974V1.839739C15.178626 1.839739 15.617818 1.90056 16.044077 2.022448L15.934105 2.407034ZM14.727092 2.23974C13.529556 2.23974 12.518295 2.656742 11.681566 3.494108L11.398615 3.211374C12.311219 2.298075 13.424627 1.839739 14.727092 1.839739V2.23974ZM11.681458 3.494217C10.844091 4.330946 10.427091 5.342203 10.427091 6.539739H10.027091C10.027091 5.237274 10.485423 4.123871 11.398723 3.211266L11.681458 3.494217ZM10.427091 6.539739C10.427091 7.737278 10.844096 8.748902 11.681512 9.586318L11.398669 9.869161C10.485418 8.95591 10.027091 7.842199 10.027091 6.539739H10.427091ZM11.681512 9.586318C12.518229 10.423036 13.529507 10.83974 14.727092 10.83974V11.239739C13.424677 11.239739 12.311285 10.781776 11.398669 9.869161L11.681512 9.586318ZM14.727092 10.83974C15.92468 10.83974 16.936322 10.423031 17.773726 9.586264L18.05646 9.869215C17.143198 10.781781 16.029503 11.239739 14.727092 11.239739V10.83974ZM17.773617 9.586371C18.610384 8.748967 19.027092 7.737327 19.027092 6.539739H19.427094C19.427094 7.842151 18.969134 8.955845 18.056569 9.869107L17.773617 9.586371ZM19.027092 6.539739C19.027092 6.124606 18.971245 5.722466 18.859799 5.332726L19.244385 5.222754C19.366272 5.649013 19.427094 6.088204 19.427094 6.539739H19.027092ZM18.859776 5.332643C18.748732 4.943674 18.58241 4.583275 18.360682 4.25068L18.693503 4.028799C18.938439 4.396206 19.122118 4.794472 19.244408 5.222836L18.859776 5.332643ZM18.38567 3.998318 20.78567 1.598318 21.068514 1.881163 18.668515 4.281161 18.38567 3.998318ZM20.78567 1.598318C20.952126 1.431864 21.033286 1.245884 21.040198 1.033243L21.439986 1.046236C21.429564 1.366928 21.30206 1.647615 21.068514 1.881163L20.78567 1.598318ZM21.040183 1.033743C21.04642 .825785 20.97432 .644812 20.810669 .481163L21.093514 .198318C21.329863 .434669 21.449763 .72036 21.44 1.045736L21.040183 1.033743ZM20.810669 .481163C20.647032 .317524 20.459784 .23974 20.239092 .23974V-.160261C20.569067-.160261 20.857151-.038042 21.093514 .198318L20.810669 .481163ZM20.239092 .23974C20.019209 .23974 19.832257 .317421 19.668515 .481163L19.38567 .198318C19.62193-.037939 19.909642-.160261 20.239092-.160261V.23974ZM14.727092 3.839739C15.478703 3.839739 16.121674 4.101477 16.643515 4.623318L16.36067 4.90616C15.915845 4.461334 15.37548 4.239739 14.727092 4.239739V3.839739ZM16.643515 4.623318C17.165354 5.145158 17.427094 5.788126 17.427094 6.539739H17.027092C17.027092 5.891351 16.805497 5.350986 16.36067 4.90616L16.643515 4.623318ZM17.427094 6.539739C17.427094 7.291351 17.165354 7.93432 16.643515 8.456161L16.36067 8.173318C16.805497 7.728492 17.027092 7.188127 17.027092 6.539739H17.427094ZM16.643515 8.456161C16.121674 8.978002 15.478704 9.239739 14.727092 9.239739V8.83974C15.37548 8.83974 15.915845 8.618144 16.36067 8.173318L16.643515 8.456161ZM14.727092 9.239739C13.975479 9.239739 13.33251 8.978002 12.81067 8.456161L13.093513 8.173318C13.538339 8.618144 14.078704 8.83974 14.727092 8.83974V9.239739ZM12.81067 8.456161C12.288829 7.93432 12.027091 7.291351 12.027091 6.539739H12.427091C12.427091 7.188127 12.648686 7.728492 13.093513 8.173318L12.81067 8.456161ZM12.027091 6.539739C12.027091 5.788126 12.28883 5.145158 12.81067 4.623318L13.093513 4.90616C12.648686 5.350986 12.427091 5.891351 12.427091 6.539739H12.027091ZM12.81067 4.623318C13.332511 4.101477 13.97548 3.839739 14.727092 3.839739V4.239739C14.078704 4.239739 13.538339 4.461334 13.093513 4.90616L12.81067 4.623318ZM.515933 5.229178C.343642 5.348457 .245202 5.50471 .212573 5.708378L-.18239 5.645102C-.132353 5.332769 .027207 5.081023 .288249 4.900302L.515933 5.229178ZM.212506 5.708795C.178044 5.921033 .214492 6.120827 .32574 6.315511L-.021557 6.513967C-.176976 6.241984-.231862 5.94978-.182323 5.644685L.212506 5.708795ZM.32177 6.308865 4.09677 12.358866 3.757413 12.570614-.017587 6.520613 .32177 6.308865ZM4.095006 12.35609C4.245753 12.589064 4.44466 12.707558 4.705212 12.727312L4.674971 13.126167C4.284856 13.096589 3.975096 12.907083 3.759177 12.57339L4.095006 12.35609ZM4.705649 12.727346C4.966195 12.747676 5.186676 12.661352 5.38088 12.453276L5.673302 12.726204C5.400839 13.018127 5.063321 13.15647 4.674533 13.126133L4.705649 12.727346ZM5.375348 12.459455 7.500348 9.984455 7.803834 10.245024 5.678834 12.720024 5.375348 12.459455ZM7.822564 10.01015 10.997564 15.18515 10.656618 15.394329 7.481618 10.219329 7.822564 10.01015ZM11.000176 15.189532C11.146628 15.442495 11.358854 15.564739 11.665091 15.564739V15.964739C11.22066 15.964739 10.874221 15.770317 10.654006 15.389947L11.000176 15.189532ZM11.665091 15.564739C11.976023 15.564739 12.199481 15.4456 12.360681 15.203799L12.693501 15.425679C12.454701 15.783879 12.103492 15.964739 11.665091 15.964739V15.564739ZM12.360681 15.203799 14.210681 12.4288 14.543502 12.65068 12.693501 15.425679 12.360681 15.203799ZM14.368404 12.739552C13.974719 12.722434 13.600616 12.675464 13.246431 12.598137L13.331751 12.207342C13.661567 12.279348 14.012797 12.323711 14.385778 12.339928L14.368404 12.739552ZM13.245988 12.59804C12.893735 12.520296 12.545986 12.412704 12.202813 12.275434L12.351369 11.904044C12.674863 12.033442 13.001781 12.134516 13.332194 12.207439L13.245988 12.59804ZM12.443501 12.20068 11.893501 13.02568 11.56068 12.8038 12.110681 11.9788 12.443501 12.20068ZM11.55673 13.019512 8.48173 8.019511 8.822452 7.809968 11.897451 12.809967 11.55673 13.019512ZM8.484177 8.02339C8.333593 7.790669 8.129494 7.665977 7.857191 7.638746L7.896992 7.240732C8.291356 7.280169 8.603922 7.472143 8.820005 7.806089L8.484177 8.02339ZM7.857191 7.638746C7.592459 7.612273 7.371253 7.70013 7.177607 7.92144L6.876575 7.658039C7.149596 7.346015 7.495058 7.200539 7.896992 7.240732L7.857191 7.638746ZM7.178834 7.920024 5.053834 10.395023 4.750348 10.134455 6.875348 7.659455 7.178834 7.920024ZM4.732057 10.37004 1.682057 5.445041 2.022126 5.234439 5.072125 10.159438 4.732057 10.37004ZM1.680593 5.442639C1.560234 5.242042 1.38824 5.121113 1.151041 5.073891L1.229142 4.681589C1.57461 4.750366 1.843949 4.937438 2.02359 5.23684L1.680593 5.442639ZM1.150696 5.073821C.915835 5.026635 .71277 5.074986 .525656 5.222004L.278527 4.907476C.558079 4.687828 .880348 4.611511 1.229487 4.681659L1.150696 5.073821ZM17.029704 12.224067C16.702994 12.361629 16.363524 12.473264 16.011439 12.559053L15.916743 12.170424C16.24866 12.089549 16.567856 11.984517 16.87448 11.855412L17.029704 12.224067ZM16.011527 12.559032C15.657069 12.645571 15.290196 12.697304 14.911173 12.714533L14.893009 12.314945C15.247319 12.298841 15.588447 12.250576 15.916656 12.170446L16.011527 12.559032ZM15.071161 12.407896 19.62116 19.607897 19.283022 19.821583 14.733021 12.621582 15.071161 12.407896ZM19.620327 19.606589C19.740786 19.793969 19.912295 19.91462 20.147902 19.970057L20.056284 20.359423C19.725224 20.281527 19.463397 20.102177 19.283856 19.822892L19.620327 19.606589ZM20.147902 19.970057C20.370694 20.022479 20.566939 19.979083 20.753529 19.832476L21.000657 20.147004C20.72058 20.367064 20.40016 20.440335 20.056284 20.359423L20.147902 19.970057ZM20.76325 19.825303C20.937098 19.704947 21.040715 19.546242 21.080746 19.339688L21.473439 19.41579C21.41347 19.725237 21.250422 19.974534 20.990935 20.154179L20.76325 19.825303ZM21.080727 19.339783C21.121449 19.129113 21.088562 18.931675 20.978444 18.738968L21.32574 18.540513C21.482289 18.81447 21.532734 19.109034 21.473458 19.415698L21.080727 19.339783ZM20.98336 18.747115 16.78336 12.147115 17.120823 11.932364 21.320824 18.532364 20.98336 18.747115Z" fill="#ffffff"/>
</g>
</svg>
