<svg width="20" height="20" viewBox="0 0 20 20" fill="none" xmlns="http://www.w3.org/2000/svg">
<path fill-rule="evenodd" clip-rule="evenodd" d="M15.2955 13.4773C14.5833 14.1894 13.7273 14.5455 12.7273 14.5455H10.9091V17.2725H13.5455C14.0978 17.2725 14.5455 17.7202 14.5455 18.2725V19.0906H10.9091V19.0913H9.09094V19.0906H5.45459V18.2725C5.45459 17.7202 5.90231 17.2725 6.45459 17.2725H9.09094V14.5455H7.27273C6.27273 14.5455 5.41667 14.1894 4.70455 13.4773C4.61553 13.3883 4.53208 13.297 4.45419 13.2035C3.90897 12.5489 3.63636 11.7841 3.63636 10.9091V6.36364H1.81818C1.31818 6.36364 0.89 6.18545 0.533637 5.82909C0.177879 5.47333 0 5.04545 0 4.54545V1.81818C0 1.31818 0.177879 0.89 0.533637 0.533636C0.89 0.177879 1.31818 0 1.81818 0H3.63636H16.3636H18.1818C18.6818 0 19.11 0.177879 19.4664 0.533636C19.8221 0.89 20 1.31818 20 1.81818V4.54545C20 5.04545 19.8221 5.47333 19.4664 5.82909C19.11 6.18545 18.6818 6.36364 18.1818 6.36364H16.3636V10.9091C16.3636 11.9091 16.0076 12.7652 15.2955 13.4773ZM16.3636 4.54545H18.1818V1.81818H16.3636V4.54545ZM3.63636 1.81818H1.81818V4.54545H3.63636V1.81818ZM7.08859 12.7189C7.14885 12.7245 7.21023 12.7273 7.27273 12.7273H12.7273C12.8364 12.7273 12.942 12.7188 13.0443 12.7018C13.4106 12.641 13.7328 12.4713 14.0109 12.1927C14.345 11.8592 14.5225 11.4623 14.5434 11.002C14.5448 10.9713 14.5455 10.9403 14.5455 10.9091V1.81818H11.8182H8.18182H5.45455V10.9091C5.45455 10.9547 5.45602 10.9997 5.45898 11.0441C5.48851 11.4865 5.66522 11.8694 5.98909 12.1927C6.30037 12.5045 6.66688 12.6799 7.08859 12.7189Z" fill="black" style="fill:black;fill:black;fill-opacity:1;" style="mix-blend-mode:overlay"/>
<path fill-rule="evenodd" clip-rule="evenodd" d="M15.2955 13.4773C14.5833 14.1894 13.7273 14.5455 12.7273 14.5455H10.9091V17.2725H13.5455C14.0978 17.2725 14.5455 17.7202 14.5455 18.2725V19.0906H10.9091V19.0913H9.09094V19.0906H5.45459V18.2725C5.45459 17.7202 5.90231 17.2725 6.45459 17.2725H9.09094V14.5455H7.27273C6.27273 14.5455 5.41667 14.1894 4.70455 13.4773C4.61553 13.3883 4.53208 13.297 4.45419 13.2035C3.90897 12.5489 3.63636 11.7841 3.63636 10.9091V6.36364H1.81818C1.31818 6.36364 0.89 6.18545 0.533637 5.82909C0.177879 5.47333 0 5.04545 0 4.54545V1.81818C0 1.31818 0.177879 0.89 0.533637 0.533636C0.89 0.177879 1.31818 0 1.81818 0H3.63636H16.3636H18.1818C18.6818 0 19.11 0.177879 19.4664 0.533636C19.8221 0.89 20 1.31818 20 1.81818V4.54545C20 5.04545 19.8221 5.47333 19.4664 5.82909C19.11 6.18545 18.6818 6.36364 18.1818 6.36364H16.3636V10.9091C16.3636 11.9091 16.0076 12.7652 15.2955 13.4773ZM16.3636 4.54545H18.1818V1.81818H16.3636V4.54545ZM3.63636 1.81818H1.81818V4.54545H3.63636V1.81818ZM7.08859 12.7189C7.14885 12.7245 7.21023 12.7273 7.27273 12.7273H12.7273C12.8364 12.7273 12.942 12.7188 13.0443 12.7018C13.4106 12.641 13.7328 12.4713 14.0109 12.1927C14.345 11.8592 14.5225 11.4623 14.5434 11.002C14.5448 10.9713 14.5455 10.9403 14.5455 10.9091V1.81818H11.8182H8.18182H5.45455V10.9091C5.45455 10.9547 5.45602 10.9997 5.45898 11.0441C5.48851 11.4865 5.66522 11.8694 5.98909 12.1927C6.30037 12.5045 6.66688 12.6799 7.08859 12.7189Z" fill="black" fill-opacity="0.56" style="fill:black;fill:black;fill-opacity:0.56;"/>
</svg>
