<svg xmlns="http://www.w3.org/2000/svg" xmlns:xlink="http://www.w3.org/1999/xlink" version="1.1" width="20.53125pt" height="18.003907pt" viewBox="0 0 20.53125 18.003907">
<path transform="matrix(1,0,0,-1,-.734375,17.174805)" d="M1.734448-.829102C.964115-.829102 .483056 .005268 .869021 .671934L10.134575 16.676074C10.51974 17.341359 11.480262 17.341357 11.865426 16.676072L21.13098 .671932C21.516945 .005266 21.035885-.829102 20.265553-.829102H1.734448ZM11 2.170898C11.283334 2.170898 11.520834 2.266731 11.712501 2.458398 11.904167 2.650064 12 2.887565 12 3.170898 12 3.454232 11.904167 3.691731 11.712501 3.883398 11.520834 4.075065 11.283334 4.170898 11 4.170898 10.716666 4.170898 10.479167 4.075065 10.2875 3.883398 10.095834 3.691731 10 3.454232 10 3.170898 10 2.887565 10.095834 2.650064 10.2875 2.458398 10.479167 2.266731 10.716666 2.170898 11 2.170898ZM10 6.170898C10 5.618613 10.447715 5.170898 11 5.170898 11.552285 5.170898 12 5.618613 12 6.170898V9.170898C12 9.723184 11.552285 10.170898 11 10.170898 10.447715 10.170898 10 9.723184 10 9.170898V6.170898Z" fill="#ff9300"/>
</svg>
