<?xml version="1.0" encoding="UTF-8" standalone="no"?>
<svg
   xmlns:dc="http://purl.org/dc/elements/1.1/"
   xmlns:cc="http://creativecommons.org/ns#"
   xmlns:rdf="http://www.w3.org/1999/02/22-rdf-syntax-ns#"
   xmlns:svg="http://www.w3.org/2000/svg"
   xmlns="http://www.w3.org/2000/svg"
   viewBox="0 0 26.666668 26.666668"
   height="26.666668"
   width="26.666668"
   xml:space="preserve"
   id="svg2"
   version="1.1"><metadata
     id="metadata8"><rdf:RDF><cc:Work
         rdf:about=""><dc:format>image/svg+xml</dc:format><dc:type
           rdf:resource="http://purl.org/dc/dcmitype/StillImage" /></cc:Work></rdf:RDF></metadata><defs
     id="defs6" /><g
     transform="matrix(1.3333333,0,0,-1.3333333,0,26.666667)"
     id="g10"><g
       id="g12"><g
         transform="translate(2.5,1.666504)"
         id="g14"><path
           id="path16"
           style="fill:#ffffff;fill-opacity:0.56000001;fill-rule:nonzero;stroke:none"
           d="m 1.666667,-1.6e-4 c -0.458334,0 -0.850695,0.163194 -1.177084,0.489584 C 0.163194,0.815812 0,1.208173 0,1.666507 v 11.666664 c 0,0.458333 0.163194,0.850695 0.489583,1.177083 0.326389,0.326389 0.71875,0.489584 1.177084,0.489584 H 2.5 v 1.666666 h 1.666667 v -1.666666 h 6.666666 v 1.666666 H 12.5 v -1.666666 h 0.833333 c 0.458333,0 0.850695,-0.163195 1.177084,-0.489584 C 14.836805,14.183866 15,13.791504 15,13.333171 V 1.666507 C 15,1.208173 14.836805,0.815812 14.510417,0.489424 14.184028,0.163034 13.791666,-1.6e-4 13.333333,-1.6e-4 Z m 0,1.666667 H 13.333333 V 9.999838 H 1.666667 Z m 0,9.999998 h 11.666666 v 1.666666 H 1.666667 Z" /></g></g></g></svg>