<svg xmlns="http://www.w3.org/2000/svg" xmlns:xlink="http://www.w3.org/1999/xlink" version="1.1" width="21.999535pt" height="22pt" viewBox="0 0 21.999535 22">
<defs>
<mask id="mask_0">
<g>
<clipPath id="clip_1">
<path transform="matrix(1,0,0,-1,0,22)" d="M0 0H21.999535V22H0Z"/>
</clipPath>
<g clip-path="url(#clip_1)">
<path transform="matrix(.707107,-.707107,-.707107,-.707107,15.556349,26.556349)" d="M0 18.000002C0 19.885619 0 20.828427 .585786 21.414214 1.171573 22 2.114382 22 4 22H11.556023C13.44164 22 14.384448 22 14.970234 21.414214 15.556021 20.828427 15.556021 19.885619 15.556021 18V10.443977C15.556021 8.55836 15.556021 7.615552 14.970234 7.029766 14.384448 6.443979 13.441639 6.443979 11.556021 6.443979H3.999998C2.114381 6.443979 1.171573 6.443979 .585786 7.029766 0 7.615552 0 8.558361 0 10.443979V18.000002Z"/>
</g>
</g>
"/>
</mask>
<clipPath id="clip_2">
<path transform="matrix(1,0,0,-1,0,22)" d="M0 0H21.999535V22H0Z"/>
</clipPath>
</defs>
<g>
<g mask="url(#mask_0)">
<g>
<g clip-path="url(#clip_2)">
<path transform="matrix(.707107,-.707107,-.707107,-.707107,15.556349,26.556349)" d="M0 18.000002C0 19.885619 0 20.828427 .585786 21.414214 1.171573 22 2.114382 22 4 22H11.556023C13.44164 22 14.384448 22 14.970234 21.414214 15.556021 20.828427 15.556021 19.885619 15.556021 18V10.443977C15.556021 8.55836 15.556021 7.615552 14.970234 7.029766 14.384448 6.443979 13.441639 6.443979 11.556021 6.443979H3.999998C2.114381 6.443979 1.171573 6.443979 .585786 7.029766 0 7.615552 0 8.558361 0 10.443979V18.000002Z" fill="#ffa800"/>
<path transform="matrix(1,0,0,-1,3.888916,21.694823)" d="M10.647805 9.107877C10.093143 10.508913 7.329431 12.322146 5.698072 13.247401 4.690468 13.821848 3.721247 14.343676 2.790413 14.968552 1.112992 16.091135 .571765 16.78398 .187916 17.209334 .640858 11.881447 7.289125 11.070205 10.647805 9.096913V9.107877ZM10.53841 8.099304C10.121934 8.60359 9.630605 8.866695 9.075943 9.134186 7.467615 9.905962 5.112702 10.519875 3.847919 11.048278 3.110929 11.357427 2.429596 11.841979 1.679171 12.14455 2.631117 8.629899 6.97629 8.81846 10.53841 8.110268V8.099304ZM4.158836 8.283477C4.414096 7.513893 5.728779 7.011802 6.717191 6.849554 7.705602 6.687305 9.970313 6.849552 10.826297 7.193782 8.761189 7.972136 6.348695 7.948018 4.158836 8.29444V8.283477ZM7.980055 .000038C9.298576 .789356 11.878041 3.600199 12.818472 5.26215 14.641756 8.493962 12.983529 11.004428 11.237016 12.635682 8.521282 15.172459 4.700065 17.03393 2.231914 19.377762 1.352196 20.21133 .614409 21.222893 .055487 22.361817-1.109495 13.492968 16.520697 13.841583 10.632451 3.595816 9.873208 2.287237 8.983074 1.084185 7.980055 .011002V.000038Z" fill="#ffffff" fill-rule="evenodd"/>
</g>
</g>
</g>
</g>
</svg>
