<svg xmlns="http://www.w3.org/2000/svg" xmlns:xlink="http://www.w3.org/1999/xlink" version="1.1" width="19.449219pt" height="18.6875pt" viewBox="0 0 19.449219 18.6875">
<defs>
<clipPath id="clip_0">
<path transform="matrix(1,0,0,-1,0,18.6875)" d="M0 0H19.449219V18.6875H0Z"/>
</clipPath>
</defs>
<g>
<g style="mix-blend-mode:overlay">
<g clip-path="url(#clip_0)">
<path transform="matrix(1,0,0,-1,0,18.72461)" d="M0 5.362109V17.749609C0 18.016276 .095833 18.245444 .2875 18.437109 .479167 18.628777 .708333 18.72461 .975 18.72461H13.625C13.891666 18.72461 14.120833 18.628777 14.3125 18.437109 14.504167 18.245444 14.6 18.016276 14.6 17.749609V9.049609C14.6 8.782943 14.504167 8.553776 14.3125 8.362109 14.120833 8.170443 13.891666 8.074609 13.625 8.074609H3.85L.8125 5.037109C.6625 4.88711 .489583 4.849609 .29375 4.924609 .097917 4.999609 0 5.145443 0 5.362109ZM4.825 3.224609C4.558333 3.224609 4.329167 3.320442 4.1375 3.512109 3.945834 3.703775 3.85 3.932942 3.85 4.199609V6.199609H16.475V14.874609H18.475C18.741667 14.874609 18.970833 14.778776 19.1625 14.587109 19.354168 14.395443 19.45 14.166276 19.45 13.899609V.51211C19.45 .295443 19.352084 .149611 19.15625 .07461 18.960417-.000391 18.7875 .037109 18.6375 .187109L15.6 3.224609H4.825ZM12.725 16.84961H1.875V9.949609H12.725V16.84961Z"/>
</g>
</g>
<path transform="matrix(1,0,0,-1,0,18.72461)" d="M0 5.362109V17.749609C0 18.016276 .095833 18.245444 .2875 18.437109 .479167 18.628777 .708333 18.72461 .975 18.72461H13.625C13.891666 18.72461 14.120833 18.628777 14.3125 18.437109 14.504167 18.245444 14.6 18.016276 14.6 17.749609V9.049609C14.6 8.782943 14.504167 8.553776 14.3125 8.362109 14.120833 8.170443 13.891666 8.074609 13.625 8.074609H3.85L.8125 5.037109C.6625 4.88711 .489583 4.849609 .29375 4.924609 .097917 4.999609 0 5.145443 0 5.362109ZM4.825 3.224609C4.558333 3.224609 4.329167 3.320442 4.1375 3.512109 3.945834 3.703775 3.85 3.932942 3.85 4.199609V6.199609H16.475V14.874609H18.475C18.741667 14.874609 18.970833 14.778776 19.1625 14.587109 19.354168 14.395443 19.45 14.166276 19.45 13.899609V.51211C19.45 .295443 19.352084 .149611 19.15625 .07461 18.960417-.000391 18.7875 .037109 18.6375 .187109L15.6 3.224609H4.825ZM12.725 16.84961H1.875V9.949609H12.725V16.84961Z" fill-opacity=".56"/>
</g>
</svg>
