<?xml version="1.0" encoding="UTF-8" standalone="no"?>
<svg
   xmlns:dc="http://purl.org/dc/elements/1.1/"
   xmlns:cc="http://creativecommons.org/ns#"
   xmlns:rdf="http://www.w3.org/1999/02/22-rdf-syntax-ns#"
   xmlns:svg="http://www.w3.org/2000/svg"
   xmlns="http://www.w3.org/2000/svg"
   viewBox="0 0 24 26.666668"
   height="26.666668"
   width="24"
   xml:space="preserve"
   id="svg2"
   version="1.1"><metadata
     id="metadata8"><rdf:RDF><cc:Work
         rdf:about=""><dc:format>image/svg+xml</dc:format><dc:type
           rdf:resource="http://purl.org/dc/dcmitype/StillImage" /></cc:Work></rdf:RDF></metadata><defs
     id="defs6" /><g
     transform="matrix(1.3333333,0,0,-1.3333333,0,26.666667)"
     id="g10"><g
       id="g12"><path
         id="path14"
         style="fill:#ffffff;fill-opacity:1;fill-rule:nonzero;stroke:none"
         d="M 5,8 C 4.716667,8 4.479167,8.095833 4.2875,8.287499 4.095833,8.479166 4,8.716666 4,9 4,9.283334 4.095833,9.520833 4.2875,9.7125 4.479167,9.904166 4.716667,10 5,10 5.283333,10 5.520833,9.904166 5.7125,9.7125 5.904167,9.520833 6,9.283334 6,9 6,8.716666 5.904167,8.479166 5.7125,8.287499 5.520833,8.095833 5.283333,8 5,8 Z M 9,8 C 8.716666,8 8.479167,8.095833 8.2875,8.287499 8.095834,8.479166 8,8.716666 8,9 8,9.283334 8.095834,9.520833 8.2875,9.7125 8.479167,9.904166 8.716666,10 9,10 9.283334,10 9.520834,9.904166 9.712501,9.7125 9.904167,9.520833 10,9.283334 10,9 10,8.716666 9.904167,8.479166 9.712501,8.287499 9.520834,8.095833 9.283334,8 9,8 Z m 4,0 C 12.716666,8 12.479167,8.095833 12.2875,8.287499 12.095834,8.479166 12,8.716666 12,9 12,9.283334 12.095834,9.520833 12.2875,9.7125 12.479167,9.904166 12.716666,10 13,10 13.283334,10 13.520834,9.904166 13.712501,9.7125 13.904167,9.520833 14,9.283334 14,9 14,8.716666 13.904167,8.479166 13.712501,8.287499 13.520834,8.095833 13.283334,8 13,8 Z M 2,0 C 1.45,0 0.979167,0.195833 0.5875,0.5875 0.195833,0.979166 0,1.450001 0,2 v 14 c 0,0.549999 0.195833,1.020834 0.5875,1.4125 C 0.979167,17.804167 1.45,18 2,18 h 1 v 2 h 2 v -2 h 8 v 2 h 2 v -2 h 1 c 0.549999,0 1.020834,-0.195833 1.4125,-0.5875 C 17.804167,17.020834 18,16.549999 18,16 V 2 C 18,1.450001 17.804167,0.979166 17.4125,0.5875 17.020834,0.195833 16.549999,0 16,0 Z M 2,2 H 16 V 12 H 2 Z m 0,12 h 14 v 2 H 2 Z" /></g></g></svg>