<svg xmlns="http://www.w3.org/2000/svg" xmlns:xlink="http://www.w3.org/1999/xlink" version="1.1" width="24pt" height="24pt" viewBox="0 0 24 24">
<defs>
<clipPath id="clip_0">
<path transform="matrix(1,0,0,-1,0,24)" d="M0 0H24V24H0Z"/>
</clipPath>
</defs>
<g>
<g style="mix-blend-mode:overlay">
<g clip-path="url(#clip_0)">
<path transform="matrix(1,0,0,-1,.0625,17.9375)" d="M10.175 6C9.7375 6 9.378125 6.164583 9.096875 6.49375 8.815625 6.822917 8.712501 7.204166 8.7875 7.6375L9.1 9.475C9.230417 10.177033 9.560534 10.752542 10.09035 11.201525 10.620167 11.650509 11.235567 11.875 11.93655 11.875 12.653851 11.875 13.277765 11.650509 13.808299 11.201525 14.338833 10.752542 14.6694 10.177033 14.8 9.475L15.1125 7.6375C15.1875 7.204166 15.084375 6.822917 14.803125 6.49375 14.521875 6.164583 14.1625 6 13.725 6H10.175ZM3.060325 5C2.689692 4.983333 2.371425 5.055908 2.105525 5.217724 1.839642 5.379541 1.666417 5.6301 1.58585 5.9694 1.553617 6.1148 1.545833 6.2625 1.5625 6.4125 1.579167 6.5625 1.620833 6.7 1.6875 6.825 1.6875 6.816667 1.679167 6.845833 1.6625 6.9125 1.599533 6.995833 1.548375 7.0875 1.509025 7.1875 1.469675 7.2875 1.441667 7.392992 1.425 7.503975 1.391667 7.694208 1.414583 7.876524 1.49375 8.050924 1.572917 8.225307 1.679167 8.379167 1.8125 8.5125 1.820833 8.5125 1.833333 8.529167 1.85 8.5625 1.883333 8.8625 2.010417 9.11875 2.23125 9.33125 2.452083 9.54375 2.720834 9.65 3.0375 9.65 3.095834 9.65 3.251317 9.616667 3.50395 9.55L3.575 9.575C3.655733 9.658333 3.760683 9.720833 3.88985 9.7625 4.019017 9.804167 4.15625 9.825 4.30155 9.825 4.479167 9.825 4.636592 9.795834 4.773825 9.7375 4.911075 9.679167 5.020059 9.594442 5.100775 9.483325 5.116925 9.483325 5.129033 9.479508 5.1371 9.471875 5.145183 9.464241 5.1573 9.460424 5.17345 9.460424 5.399483 9.445141 5.595834 9.375 5.7625 9.25 5.929167 9.125 6.054167 8.958225 6.1375 8.749675 6.170834 8.637392 6.183333 8.529117 6.175 8.42485 6.166667 8.320566 6.145833 8.220308 6.1125 8.124075 6.1125 8.108025 6.120317 8.07625 6.13595 8.028749 6.245317 7.917916 6.333333 7.791667 6.4 7.65 6.466667 7.508333 6.5 7.366667 6.5 7.225 6.5 7.175 6.454167 7.008333 6.3625 6.725 6.345833 6.691667 6.345833 6.658333 6.3625 6.625L6.4125 6.23695C6.4125 5.897384 6.26875 5.606333 5.98125 5.3638 5.69375 5.121267 5.348567 5 4.9457 5H3.060325ZM19.924452 4.975C19.391486 4.975 18.935418 5.164766 18.55625 5.544299 18.177083 5.923832 17.987502 6.380083 17.987502 6.913049 17.987502 7.106849 18.016669 7.288542 18.075 7.458125 18.133334 7.627708 18.208334 7.791667 18.300002 7.95L17.625 8.55C17.466668 8.683333 17.439902 8.845833 17.5447 9.0375 17.6495 9.229166 17.798642 9.325 17.992125 9.325H19.9269C20.458968 9.325 20.914584 9.135792 21.29375 8.757376 21.672919 8.378959 21.862502 7.924057 21.862502 7.392674V6.909575C21.862502 6.378191 21.672736 5.922916 21.293202 5.54375 20.913668 5.164583 20.457419 4.975 19.924452 4.975ZM.9375 0C.679167 0 .458333 .091666 .275 .275 .091667 .458333 0 .679167 0 .9375V1.5125C0 2.226933 .3625 2.799291 1.0875 3.229574 1.8125 3.659858 2.7625 3.875 3.9375 3.875 4.172217 3.875 4.3934 3.864583 4.60105 3.84375 4.808684 3.822917 5.0125 3.795834 5.2125 3.7625 4.995833 3.4375 4.833333 3.090384 4.725 2.72115 4.616667 2.3519 4.5625 1.958574 4.5625 1.541174V0H.9375ZM6.9375 0C6.679167 0 6.458333 .091666 6.275 .275 6.091667 .458333 6 .679167 6 .9375V1.537499C6 2.602283 6.548592 3.466392 7.645775 4.129825 8.742958 4.793275 10.174251 5.125 11.939651 5.125 13.721551 5.125 15.15625 4.793275 16.24375 4.129825 17.33125 3.466392 17.875 2.602283 17.875 1.537499V.9375C17.875 .679167 17.783333 .458333 17.6 .275 17.416668 .091666 17.195834 0 16.9375 0H6.9375ZM19.3125 0V1.537774C19.3125 1.954257 19.256325 2.348358 19.143975 2.720075 19.031624 3.091791 18.871134 3.439266 18.6625 3.7625 18.862502 3.795834 19.066317 3.822917 19.27395 3.84375 19.4816 3.864583 19.702784 3.875 19.9375 3.875 21.1125 3.875 22.0625 3.659858 22.7875 3.229574 23.5125 2.799291 23.875 2.226933 23.875 1.5125V.9375C23.875 .679167 23.783333 .458333 23.6 .275 23.416668 .091666 23.195834 0 22.9375 0H19.3125Z"/>
</g>
</g>
<path transform="matrix(1,0,0,-1,.0625,17.9375)" d="M10.175 6C9.7375 6 9.378125 6.164583 9.096875 6.49375 8.815625 6.822917 8.712501 7.204166 8.7875 7.6375L9.1 9.475C9.230417 10.177033 9.560534 10.752542 10.09035 11.201525 10.620167 11.650509 11.235567 11.875 11.93655 11.875 12.653851 11.875 13.277765 11.650509 13.808299 11.201525 14.338833 10.752542 14.6694 10.177033 14.8 9.475L15.1125 7.6375C15.1875 7.204166 15.084375 6.822917 14.803125 6.49375 14.521875 6.164583 14.1625 6 13.725 6H10.175ZM3.060325 5C2.689692 4.983333 2.371425 5.055908 2.105525 5.217724 1.839642 5.379541 1.666417 5.6301 1.58585 5.9694 1.553617 6.1148 1.545833 6.2625 1.5625 6.4125 1.579167 6.5625 1.620833 6.7 1.6875 6.825 1.6875 6.816667 1.679167 6.845833 1.6625 6.9125 1.599533 6.995833 1.548375 7.0875 1.509025 7.1875 1.469675 7.2875 1.441667 7.392992 1.425 7.503975 1.391667 7.694208 1.414583 7.876524 1.49375 8.050924 1.572917 8.225307 1.679167 8.379167 1.8125 8.5125 1.820833 8.5125 1.833333 8.529167 1.85 8.5625 1.883333 8.8625 2.010417 9.11875 2.23125 9.33125 2.452083 9.54375 2.720834 9.65 3.0375 9.65 3.095834 9.65 3.251317 9.616667 3.50395 9.55L3.575 9.575C3.655733 9.658333 3.760683 9.720833 3.88985 9.7625 4.019017 9.804167 4.15625 9.825 4.30155 9.825 4.479167 9.825 4.636592 9.795834 4.773825 9.7375 4.911075 9.679167 5.020059 9.594442 5.100775 9.483325 5.116925 9.483325 5.129033 9.479508 5.1371 9.471875 5.145183 9.464241 5.1573 9.460424 5.17345 9.460424 5.399483 9.445141 5.595834 9.375 5.7625 9.25 5.929167 9.125 6.054167 8.958225 6.1375 8.749675 6.170834 8.637392 6.183333 8.529117 6.175 8.42485 6.166667 8.320566 6.145833 8.220308 6.1125 8.124075 6.1125 8.108025 6.120317 8.07625 6.13595 8.028749 6.245317 7.917916 6.333333 7.791667 6.4 7.65 6.466667 7.508333 6.5 7.366667 6.5 7.225 6.5 7.175 6.454167 7.008333 6.3625 6.725 6.345833 6.691667 6.345833 6.658333 6.3625 6.625L6.4125 6.23695C6.4125 5.897384 6.26875 5.606333 5.98125 5.3638 5.69375 5.121267 5.348567 5 4.9457 5H3.060325ZM19.924452 4.975C19.391486 4.975 18.935418 5.164766 18.55625 5.544299 18.177083 5.923832 17.987502 6.380083 17.987502 6.913049 17.987502 7.106849 18.016669 7.288542 18.075 7.458125 18.133334 7.627708 18.208334 7.791667 18.300002 7.95L17.625 8.55C17.466668 8.683333 17.439902 8.845833 17.5447 9.0375 17.6495 9.229166 17.798642 9.325 17.992125 9.325H19.9269C20.458968 9.325 20.914584 9.135792 21.29375 8.757376 21.672919 8.378959 21.862502 7.924057 21.862502 7.392674V6.909575C21.862502 6.378191 21.672736 5.922916 21.293202 5.54375 20.913668 5.164583 20.457419 4.975 19.924452 4.975ZM.9375 0C.679167 0 .458333 .091666 .275 .275 .091667 .458333 0 .679167 0 .9375V1.5125C0 2.226933 .3625 2.799291 1.0875 3.229574 1.8125 3.659858 2.7625 3.875 3.9375 3.875 4.172217 3.875 4.3934 3.864583 4.60105 3.84375 4.808684 3.822917 5.0125 3.795834 5.2125 3.7625 4.995833 3.4375 4.833333 3.090384 4.725 2.72115 4.616667 2.3519 4.5625 1.958574 4.5625 1.541174V0H.9375ZM6.9375 0C6.679167 0 6.458333 .091666 6.275 .275 6.091667 .458333 6 .679167 6 .9375V1.537499C6 2.602283 6.548592 3.466392 7.645775 4.129825 8.742958 4.793275 10.174251 5.125 11.939651 5.125 13.721551 5.125 15.15625 4.793275 16.24375 4.129825 17.33125 3.466392 17.875 2.602283 17.875 1.537499V.9375C17.875 .679167 17.783333 .458333 17.6 .275 17.416668 .091666 17.195834 0 16.9375 0H6.9375ZM19.3125 0V1.537774C19.3125 1.954257 19.256325 2.348358 19.143975 2.720075 19.031624 3.091791 18.871134 3.439266 18.6625 3.7625 18.862502 3.795834 19.066317 3.822917 19.27395 3.84375 19.4816 3.864583 19.702784 3.875 19.9375 3.875 21.1125 3.875 22.0625 3.659858 22.7875 3.229574 23.5125 2.799291 23.875 2.226933 23.875 1.5125V.9375C23.875 .679167 23.783333 .458333 23.6 .275 23.416668 .091666 23.195834 0 22.9375 0H19.3125Z" fill-opacity=".56"/>
</g>
</svg>
