<svg xmlns="http://www.w3.org/2000/svg" xmlns:xlink="http://www.w3.org/1999/xlink" version="1.1" width="15.550781pt" height="17.049805pt" viewBox="0 0 15.550781 17.049805">
<path transform="matrix(1,0,0,-1,0,17.049805)" d="M1.875 1.874804H4.775V7.837304H10.775001V1.874804H13.675V10.749804L7.775 15.174805 1.875 10.749804V1.874804ZM1.875-.000196C1.358333-.000196 .916667 .183136 .55 .549803 .183333 .91647 0 1.358137 0 1.874804V10.749804C0 11.049805 .064583 11.331055 .19375 11.593554 .322917 11.856054 .508333 12.074804 .75 12.249804L6.65 16.674805C6.816667 16.799805 6.995833 16.893555 7.1875 16.956055 7.379167 17.018555 7.575 17.049805 7.775 17.049805 7.975 17.049805 8.170834 17.018555 8.3625 16.956055 8.554167 16.893555 8.733334 16.799805 8.900001 16.674805L14.8 12.249804C15.041667 12.074804 15.227083 11.856054 15.35625 11.593554 15.485416 11.331055 15.55 11.049805 15.55 10.749804V1.874804C15.55 1.358137 15.366667 .91647 15 .549803 14.633333 .183136 14.191667-.000196 13.675-.000196H8.900001V5.962304H6.65V-.000196H1.875Z" fill="#745fce"/>
</svg>
