<svg xmlns="http://www.w3.org/2000/svg" xmlns:xlink="http://www.w3.org/1999/xlink" version="1.1" width="17.400025pt" height="20.398438pt" viewBox="0 0 17.400025 20.398438">
<path transform="matrix(1,0,0,-1,.200012,20.597657)" d="M16.825928 6.162589 17.000082 6.260927 16.999817 6.261395 16.825928 6.162589ZM8.554836 20.398438 8.556291 20.598439H8.554836V20.398438ZM8.5 20.398438 8.499999 20.198437H8.5V20.398438ZM1.389603 13.039948H1.589604L1.589602 13.040445 1.389603 13.039948ZM.174072 6.162589 .000183 6.261396-.000081 6.260927 .174072 6.162589ZM.174072 4.832399 .349851 4.92786 .348226 4.930738 .174072 4.832399ZM.639266 4.345665 .536725 4.17395 .639266 4.345665ZM1.279931 4.172022V4.372034L1.277676 4.372009 1.279931 4.172022ZM5.027055 4.172022H5.227055V4.372023H5.027055V4.172022ZM5.027055 3.983343H4.827055 5.027055ZM11.972944 3.983343H12.172945 11.972944ZM11.972944 4.172022V4.372023H11.772944V4.172022H11.972944ZM15.720069 4.172022 15.722324 4.372023H15.720069V4.172022ZM16.360733 4.345665 16.463274 4.17395 16.360733 4.345665ZM16.825928 4.832399 16.65175 4.930752 16.650174 4.927848 16.825928 4.832399ZM10.876225 3.983343H11.076225 10.876225ZM6.123775 3.983343H5.923775 6.123775ZM6.123775 4.172022V4.372023H5.923775V4.172022H6.123775ZM10.876225 4.172022H11.076225V4.372023H10.876225V4.172022ZM15.720069 5.304098 15.730003 5.504098H15.720069V5.304098ZM1.279931 5.304098V5.504344L1.270009 5.503851 1.279931 5.304098ZM1.124562 5.398438 1.305292 5.485023 1.299114 5.496067 1.124562 5.398438ZM1.124562 5.587116 1.299114 5.489487 1.299192 5.489625 1.124562 5.587116ZM2.486322 13.039948H2.686322V13.040241L2.486322 13.039948ZM8.5 19.266362V19.466362H8.499687L8.5 19.266362ZM8.545697 19.266362 8.546844 19.466362H8.545697V19.266362ZM15.875438 5.587116 15.700808 5.489625 15.700886 5.489487 15.875438 5.587116ZM16.999817 6.261395C16.463019 7.206097 15.810397 9.028786 15.810397 12.28523H15.410398C15.410398 8.975636 16.07384 7.081346 16.65204 6.063782L16.999817 6.261395ZM15.810397 12.28523V12.955041H15.410398V12.28523H15.810397ZM15.810397 12.955041C15.810397 17.131556 12.568172 20.56927 8.556291 20.598433L8.553383 20.198443C12.328207 20.171004 15.410398 16.92947 15.410398 12.955041H15.810397ZM8.554836 20.598439H8.5V20.198437H8.554836V20.598439ZM8.500001 20.598439C7.537504 20.59844 6.584621 20.402424 5.695992 20.021788L5.853488 19.654099C6.692592 20.013522 7.591915 20.19844 8.499999 20.198437L8.500001 20.598439ZM5.695992 20.021788C4.807378 19.641158 4.000666 19.08348 3.321891 18.381022L3.609541 18.10307C4.251768 18.767704 5.014369 19.294669 5.853488 19.654099L5.695992 20.021788ZM3.321891 18.381022C2.643129 17.678576 2.105616 16.845147 1.739841 15.928625L2.111348 15.780361C2.458081 16.649167 2.967302 17.438422 3.609541 18.10307L3.321891 18.381022ZM1.739841 15.928625C1.374069 15.012115 1.187136 14.030329 1.189603 13.039449L1.589602 13.040445C1.587261 13.980444 1.764611 14.911545 2.111348 15.780361L1.739841 15.928625ZM1.189603 13.039948V12.28523H1.589603V13.039948H1.189603ZM1.189603 12.28523C1.189603 9.028786 .536982 7.206097 .000184 6.261395L.347961 6.063782C.926161 7.081346 1.589603 8.975636 1.589603 12.28523H1.189603ZM-.000081 6.260927C-.131169 6.028777-.2 5.765358-.2 5.497494H.2C.2 5.697011 .251304 5.892606 .348226 6.06425L-.000081 6.260927ZM-.2 5.497494C-.2 5.22963-.131169 4.966211-.000081 4.734061L.348226 4.930738C.251304 5.102383 .2 5.297977 .2 5.497494H-.2ZM-.001682 4.736952C.12507 4.503554 .310816 4.308855 .536725 4.17395L.741807 4.517378C.578552 4.614867 .442922 4.756426 .349827 4.927848L-.001682 4.736952ZM.536725 4.17395C.762691 4.039013 1.020214 3.96908 1.282186 3.972034L1.277676 4.372009C1.09008 4.369894 .905005 4.419922 .741807 4.517378L.536725 4.17395ZM1.279931 3.972023H5.027055V4.372023H1.279931V3.972023ZM4.827055 4.172022V3.983343H5.227055V4.172022H4.827055ZM4.827055 3.983343C4.827055 2.981535 5.212534 2.019531 5.900611 1.309271L6.187904 1.587593C5.573375 2.221933 5.227055 3.083599 5.227055 3.983343H4.827055ZM5.900611 1.309271C6.588897 .598797 7.52379 .198437 8.5 .198437V.598436C7.634046 .598436 6.802225 .953466 6.187904 1.587593L5.900611 1.309271ZM8.5 .198437C9.476211 .198437 10.411103 .598797 11.099389 1.309271L10.812096 1.587593C10.197775 .953466 9.365954 .598436 8.5 .598436V.198437ZM11.099389 1.309271C11.787466 2.019531 12.172945 2.981535 12.172945 3.983343H11.772944C11.772944 3.083599 11.426625 2.221933 10.812096 1.587593L11.099389 1.309271ZM12.172945 3.983343V4.172022H11.772944V3.983343H12.172945ZM11.972944 3.972023H15.720069V4.372023H11.972944V3.972023ZM15.717813 3.972034C15.979786 3.96908 16.237309 4.039013 16.463274 4.17395L16.258194 4.517378C16.094996 4.419922 15.90992 4.369894 15.722324 4.372009L15.717813 3.972034ZM16.463274 4.17395C16.689185 4.308855 16.87493 4.503554 17.001683 4.736952L16.650174 4.927848C16.55708 4.756426 16.421448 4.614867 16.258194 4.517378L16.463274 4.17395ZM17.000082 4.734061C17.13117 4.966211 17.2 5.22963 17.2 5.497494H16.800002C16.800002 5.297977 16.748696 5.102383 16.651776 4.930738L17.000082 4.734061ZM17.2 5.497494C17.2 5.765358 17.13117 6.028776 17.000082 6.260927L16.651776 6.06425C16.748696 5.892606 16.800002 5.697011 16.800002 5.497494H17.2ZM10.676226 3.983343C10.676226 3.383844 10.445454 2.810125 10.036599 2.38809L10.323893 2.10977C10.806294 2.607723 11.076225 3.28178 11.076225 3.983343H10.676226ZM10.036599 2.38809C9.627953 1.96627 9.075087 1.730513 8.5 1.730513V1.330513C9.185342 1.330513 9.841281 1.611599 10.323893 2.10977L10.036599 2.38809ZM8.5 1.730513C7.924914 1.730513 7.372047 1.96627 6.963401 2.38809L6.676108 2.10977C7.15872 1.611599 7.814658 1.330513 8.5 1.330513V1.730513ZM6.963401 2.38809C6.554546 2.810125 6.323775 3.383844 6.323775 3.983343H5.923775C5.923775 3.28178 6.193706 2.607723 6.676108 2.10977L6.963401 2.38809ZM6.323775 3.983343V4.172022H5.923775V3.983343H6.323775ZM6.123775 3.972023H10.876225V4.372023H6.123775V3.972023ZM10.676226 4.172022V3.983343H11.076225V4.172022H10.676226ZM15.695068 5.48485C15.697339 5.489589 15.701384 5.494536 15.707582 5.498301L15.915188 5.156394C15.976583 5.193673 16.025149 5.248034 16.055806 5.312025L15.695068 5.48485ZM15.707582 5.498301C15.713857 5.50211 15.721684 5.504264 15.729991 5.503851L15.710147 5.104344C15.782418 5.100754 15.853718 5.119069 15.915188 5.156394L15.707582 5.498301ZM15.720069 5.504098H1.279931V5.104097H15.720069V5.504098ZM1.270009 5.503851C1.278317 5.504264 1.286144 5.50211 1.292418 5.498301L1.084812 5.156394C1.146282 5.11907 1.217581 5.100754 1.289853 5.104344L1.270009 5.503851ZM1.292418 5.498301C1.298614 5.494538 1.302659 5.489592 1.304931 5.48485L.944193 5.312025C.974853 5.24803 1.02342 5.193671 1.084812 5.156394L1.292418 5.498301ZM1.299114 5.496067C1.299894 5.494674 1.300074 5.493561 1.300074 5.492777H.900074C.900074 5.425753 .917145 5.359567 .95001 5.300807L1.299114 5.496067ZM1.300074 5.492777C1.300074 5.491993 1.299894 5.49088 1.299114 5.489487L.95001 5.684747C.917145 5.625987 .900074 5.559801 .900074 5.492777H1.300074ZM1.299192 5.489625C1.939754 6.637025 2.686322 8.728208 2.686322 12.28523H2.286322C2.286322 8.785647 1.552319 6.763624 .949933 5.684608L1.299192 5.489625ZM2.686322 12.28523V13.039948H2.286322V12.28523H2.686322ZM2.686322 13.040241C2.685158 13.831268 2.834952 14.614647 3.127006 15.345594L2.755558 15.494009C2.444481 14.71545 2.285084 13.881477 2.286322 13.039653L2.686322 13.040241ZM3.127006 15.345594C3.419057 16.076535 3.847562 16.740534 4.387757 17.299839L4.100042 17.577725C3.523394 16.980677 3.066639 16.272576 2.755558 15.494009L3.127006 15.345594ZM4.387757 17.299839C4.92794 17.85913 5.569208 18.302769 6.274775 18.60574L6.116949 18.973288C5.36199 18.649107 4.676703 18.174786 4.100042 17.577725L4.387757 17.299839ZM6.274775 18.60574C6.980327 18.908707 7.736547 19.065167 8.500313 19.066363L8.499687 19.466362C7.681598 19.465083 6.871923 19.297476 6.116949 18.973288L6.274775 18.60574ZM8.5 19.066363H8.545697V19.466362H8.5V19.066363ZM8.54455 19.066365C11.715232 19.048184 14.313678 16.307576 14.313678 12.955041H14.713678C14.713678 16.508166 11.956477 19.446806 8.546844 19.466359L8.54455 19.066365ZM14.313678 12.955041V12.28523H14.713678V12.955041H14.313678ZM14.313678 12.28523C14.313678 8.728208 15.060246 6.637025 15.700808 5.489625L16.050066 5.684608C15.44768 6.763624 14.713678 8.785647 14.713678 12.28523H14.313678ZM15.700886 5.489487C15.700108 5.490876 15.699927 5.491988 15.699927 5.492777H16.099928C16.099928 5.559806 16.082852 5.625991 16.04999 5.684747L15.700886 5.489487ZM15.699927 5.492777C15.699927 5.493566 15.700108 5.494678 15.700886 5.496067L16.04999 5.300807C16.082852 5.359563 16.099928 5.425748 16.099928 5.492777H15.699927Z" fill="#7160c7"/>
<path transform="matrix(1,0,0,-1,.200012,20.597657)" d="M16.825928 6.162589C16.268429 7.143721 15.610397 9.002211 15.610397 12.28523V12.955041C15.610397 17.030514 12.44819 20.370137 8.554836 20.398438H8.5C7.56471 20.398442 6.638607 20.207972 5.77474 19.837943 4.910873 19.467913 4.126217 18.925593 3.465716 18.242045 2.805215 17.558499 2.281848 16.747157 1.925594 15.854493 1.56934 14.96183 1.387199 14.005386 1.389603 13.039948V12.28523C1.389603 9.002211 .731571 7.143721 .174072 6.162589 .060068 5.960691 0 5.731185 0 5.497494 0 5.263803 .060068 5.034297 .174072 4.832399 .283996 4.62999 .444684 4.461862 .639266 4.345665 .833848 4.229467 1.055147 4.169487 1.279931 4.172022H5.027055V3.983343C5.027055 3.032566 5.392954 2.120731 6.044258 1.448431 6.695561 .776133 7.578918 .398438 8.5 .398438 9.421082 .398438 10.30444 .776133 10.955743 1.448431 11.607046 2.120731 11.972944 3.032566 11.972944 3.983343V4.172022H15.720069C15.944853 4.169487 16.166152 4.229467 16.360733 4.345665 16.555317 4.461862 16.716004 4.62999 16.825928 4.832399 16.939932 5.034297 17 5.263803 17 5.497494 17 5.731185 16.939932 5.960691 16.825928 6.162589ZM10.876225 3.983343C10.876225 3.332811 10.625875 2.708925 10.180245 2.24893 9.734617 1.788935 9.130215 1.530512 8.5 1.530512 7.869786 1.530512 7.265383 1.788935 6.819755 2.24893 6.374126 2.708925 6.123775 3.332811 6.123775 3.983343V4.172022H10.876225V3.983343ZM15.875438 5.398438C15.861243 5.368811 15.838984 5.344105 15.811385 5.327347 15.783788 5.31059 15.752051 5.302509 15.720069 5.304098H1.279931C1.247949 5.302509 1.216213 5.31059 1.188615 5.327347 1.161017 5.344105 1.138756 5.368811 1.124562 5.398438 1.108519 5.42712 1.100074 5.459657 1.100074 5.492777 1.100074 5.525897 1.108519 5.558434 1.124562 5.587116 1.746037 6.700324 2.486322 8.756927 2.486322 12.28523V13.039948C2.485121 13.856373 2.639716 14.665049 2.941282 15.419802 3.242848 16.174555 3.685478 16.860606 4.2439 17.438782 4.802322 18.016959 5.465599 18.475937 6.195862 18.789515 6.926125 19.10309 7.709072 19.265124 8.5 19.266362H8.545697C11.835855 19.247494 14.513678 16.407872 14.513678 12.955041V12.28523C14.513678 8.756927 15.253963 6.700324 15.875438 5.587116 15.89148 5.558434 15.899927 5.525897 15.899927 5.492777 15.899927 5.459657 15.89148 5.42712 15.875438 5.398438Z" fill="#7160c7"/>
</svg>
