<svg xmlns="http://www.w3.org/2000/svg" xmlns:xlink="http://www.w3.org/1999/xlink" version="1.1" width="20pt" height="19.09082pt" viewBox="0 0 20 19.09082">
<defs>
<clipPath id="clip_0">
<path transform="matrix(1,0,0,-1,0,19.09082)" d="M0 0H20V19.09082H0Z"/>
</clipPath>
</defs>
<g>
<g style="mix-blend-mode:overlay">
<g clip-path="url(#clip_0)">
<path transform="matrix(1,0,0,-1,0,19.09082)" d="M15.295454 5.613546C14.583333 4.901424 13.727272 4.545365 12.727272 4.545365H10.909124V1.818359H13.545499C14.097784 1.818359 14.545499 1.370644 14.545499 .818359V.000177H10.909124V-.000444H9.090942V.000177H5.45459V.818359C5.45459 1.370644 5.902305 1.818359 6.45459 1.818359H9.090942V4.545365H7.272727C6.272727 4.545365 5.416666 4.901424 4.704545 5.613546 4.61553 5.702561 4.532078 5.793825 4.45419 5.887339 3.908972 6.541931 3.636364 7.306728 3.636364 8.181728V12.727184H1.818182C1.318182 12.727184 .89 12.905366 .533637 13.26173 .177879 13.617487 0 14.045366 0 14.545366V17.272639C0 17.772639 .177879 18.20082 .533637 18.557185 .89 18.912941 1.318182 19.09082 1.818182 19.09082H3.636364 16.363636 18.181818C18.681818 19.09082 19.11 18.912941 19.466364 18.557185 19.82212 18.20082 20 17.772639 20 17.272639V14.545366C20 14.045366 19.82212 13.617487 19.466364 13.26173 19.11 12.905366 18.681818 12.727184 18.181818 12.727184H16.363636V8.181728C16.363636 7.181728 16.007576 6.325667 15.295454 5.613546ZM16.363636 14.545366H18.181818V17.272639H16.363636V14.545366ZM3.636364 17.272639H1.818182V14.545366H3.636364V17.272639ZM7.088593 6.371899C7.148849 6.36633 7.210227 6.363546 7.272727 6.363546H12.727272C12.836376 6.363546 12.942047 6.37203 13.044283 6.388999 13.410572 6.449793 13.73278 6.619492 14.010909 6.898093 14.344999 7.231616 14.522486 7.628525 14.543366 8.088823 14.544759 8.11951 14.545454 8.150478 14.545454 8.181728V17.272639H11.818182 8.181818 5.454545V8.181728C5.454545 8.136135 5.456024 8.091141 5.458982 8.046747 5.488515 7.604294 5.665223 7.22141 5.989091 6.898092 6.300375 6.586278 6.666876 6.410879 7.088593 6.371899Z" fill-rule="evenodd"/>
</g>
</g>
<path transform="matrix(1,0,0,-1,0,19.09082)" d="M15.295454 5.613546C14.583333 4.901424 13.727272 4.545365 12.727272 4.545365H10.909124V1.818359H13.545499C14.097784 1.818359 14.545499 1.370644 14.545499 .818359V.000177H10.909124V-.000444H9.090942V.000177H5.45459V.818359C5.45459 1.370644 5.902305 1.818359 6.45459 1.818359H9.090942V4.545365H7.272727C6.272727 4.545365 5.416666 4.901424 4.704545 5.613546 4.61553 5.702561 4.532078 5.793825 4.45419 5.887339 3.908972 6.541931 3.636364 7.306728 3.636364 8.181728V12.727184H1.818182C1.318182 12.727184 .89 12.905366 .533637 13.26173 .177879 13.617487 0 14.045366 0 14.545366V17.272639C0 17.772639 .177879 18.20082 .533637 18.557185 .89 18.912941 1.318182 19.09082 1.818182 19.09082H3.636364 16.363636 18.181818C18.681818 19.09082 19.11 18.912941 19.466364 18.557185 19.82212 18.20082 20 17.772639 20 17.272639V14.545366C20 14.045366 19.82212 13.617487 19.466364 13.26173 19.11 12.905366 18.681818 12.727184 18.181818 12.727184H16.363636V8.181728C16.363636 7.181728 16.007576 6.325667 15.295454 5.613546ZM16.363636 14.545366H18.181818V17.272639H16.363636V14.545366ZM3.636364 17.272639H1.818182V14.545366H3.636364V17.272639ZM7.088593 6.371899C7.148849 6.36633 7.210227 6.363546 7.272727 6.363546H12.727272C12.836376 6.363546 12.942047 6.37203 13.044283 6.388999 13.410572 6.449793 13.73278 6.619492 14.010909 6.898093 14.344999 7.231616 14.522486 7.628525 14.543366 8.088823 14.544759 8.11951 14.545454 8.150478 14.545454 8.181728V17.272639H11.818182 8.181818 5.454545V8.181728C5.454545 8.136135 5.456024 8.091141 5.458982 8.046747 5.488515 7.604294 5.665223 7.22141 5.989091 6.898092 6.300375 6.586278 6.666876 6.410879 7.088593 6.371899Z" fill-opacity=".56" fill-rule="evenodd"/>
</g>
</svg>
