<?xml version="1.0" encoding="UTF-8" standalone="no"?>
<svg
   xmlns:dc="http://purl.org/dc/elements/1.1/"
   xmlns:cc="http://creativecommons.org/ns#"
   xmlns:rdf="http://www.w3.org/1999/02/22-rdf-syntax-ns#"
   xmlns:svg="http://www.w3.org/2000/svg"
   xmlns="http://www.w3.org/2000/svg"
   viewBox="0 0 29.332712 29.333332"
   height="29.333332"
   width="29.332712"
   xml:space="preserve"
   id="svg2"
   version="1.1"><metadata
     id="metadata8"><rdf:RDF><cc:Work
         rdf:about=""><dc:format>image/svg+xml</dc:format><dc:type
           rdf:resource="http://purl.org/dc/dcmitype/StillImage" /></cc:Work></rdf:RDF></metadata><defs
     id="defs6"><clipPath
       id="clipPath18"
       clipPathUnits="userSpaceOnUse"><path
         id="path16"
         d="M 0,0 H 21.999535 V 22 H 0 Z" /></clipPath><mask
       id="mask20"
       height="1"
       width="1"
       y="0"
       x="0"
       maskUnits="userSpaceOnUse"><g
         id="g28"><g
           id="g26"
           clip-path="url(#clipPath18)"><g
             id="g24"
             transform="rotate(45,13.278166,16.500002)"><path
               id="path22"
               style="fill:#000000;fill-opacity:1;fill-rule:nonzero;stroke:none"
               d="m 0,18.000002 c 0,1.885616 0,2.828424 0.585786,3.414211 C 1.171573,22 2.114382,22 4,22 h 7.556023 c 1.885617,0 2.828425,0 3.414211,-0.585787 C 15.556021,20.828426 15.556021,19.885618 15.556021,18 v -7.556023 c 0,-1.885617 0,-2.828425 -0.585787,-3.414211 C 14.384448,6.443979 13.441639,6.443979 11.556021,6.443979 H 3.999998 c -1.885617,0 -2.828425,0 -3.414212,0.585787 C 0,7.615552 0,8.558361 0,10.443979 Z" /></g></g></g></mask><clipPath
       id="clipPath36"
       clipPathUnits="userSpaceOnUse"><path
         id="path34"
         d="M 0,0 H 21.999535 V 22 H 0 Z" /></clipPath></defs><g
     transform="matrix(1.3333333,0,0,-1.3333333,0,29.333333)"
     id="g10"><g
       id="g12"><g
         id="g14" /><g
         mask="url(#mask20)"
         id="g30"><g
           id="g32" /><g
           id="g48"><g
             id="g46"
             clip-path="url(#clipPath36)"><g
               id="g40"
               transform="rotate(45,13.278166,16.500002)"><path
                 id="path38"
                 style="fill:#ffa800;fill-opacity:1;fill-rule:nonzero;stroke:none"
                 d="m 0,18.000002 c 0,1.885616 0,2.828424 0.585786,3.414211 C 1.171573,22 2.114382,22 4,22 h 7.556023 c 1.885617,0 2.828425,0 3.414211,-0.585787 C 15.556021,20.828426 15.556021,19.885618 15.556021,18 v -7.556023 c 0,-1.885617 0,-2.828425 -0.585787,-3.414211 C 14.384448,6.443979 13.441639,6.443979 11.556021,6.443979 H 3.999998 c -1.885617,0 -2.828425,0 -3.414212,0.585787 C 0,7.615552 0,8.558361 0,10.443979 Z" /></g><g
               id="g44"
               transform="translate(3.888916,0.305178)"><path
                 id="path42"
                 style="fill:#ffffff;fill-opacity:1;fill-rule:evenodd;stroke:none"
                 d="m 10.647805,9.107877 c -0.554662,1.401036 -3.318374,3.214269 -4.949733,4.139524 -1.007604,0.574447 -1.976825,1.096275 -2.907659,1.721151 -1.677421,1.122583 -2.218648,1.815427 -2.602497,2.240781 0.452942,-5.327886 7.101209,-6.139128 10.459889,-8.11242 z M 10.53841,8.099304 C 10.121934,8.60359 9.630605,8.866695 9.075943,9.134186 7.467615,9.905962 5.112702,10.519875 3.847919,11.048278 3.110929,11.357427 2.429596,11.841979 1.679171,12.14455 2.631117,8.629899 6.97629,8.81846 10.53841,8.110268 Z M 4.158836,8.283477 C 4.414096,7.513893 5.728779,7.011802 6.717191,6.849554 7.705602,6.687305 9.970313,6.849552 10.826297,7.193782 8.761189,7.972136 6.348695,7.948018 4.158836,8.29444 Z M 7.980055,3.8e-5 c 1.318521,0.789318 3.897986,3.600161 4.838417,5.262112 1.823284,3.231812 0.165057,5.742278 -1.581456,7.373532 -2.715734,2.536777 -6.536951,4.398248 -9.005102,6.74208 -0.879718,0.833568 -1.617505,1.845131 -2.176427,2.984054 -1.164982,-8.868848 16.46521,-8.520233 10.576964,-18.766 C 9.873208,2.287237 8.983074,1.084185 7.980055,0.011002 Z" /></g></g></g></g></g></g></svg>